<?xml version="1.0" encoding="UTF-8" standalone="no"?>
<!-- Created with Inkscape (http://www.inkscape.org/) -->

<svg
   xmlns:dc="http://purl.org/dc/elements/1.1/"
   xmlns:cc="http://creativecommons.org/ns#"
   xmlns:rdf="http://www.w3.org/1999/02/22-rdf-syntax-ns#"
   xmlns:svg="http://www.w3.org/2000/svg"
   xmlns="http://www.w3.org/2000/svg"
   xmlns:sodipodi="http://sodipodi.sourceforge.net/DTD/sodipodi-0.dtd"
   xmlns:inkscape="http://www.inkscape.org/namespaces/inkscape"
   inkscape:export-ydpi="11.25"
   inkscape:export-xdpi="11.25"
   inkscape:export-filename="/home/lidel/gfx/sine logo/avatar2.2_100x100.png"
   inkscape:output_extension="org.inkscape.output.svg.inkscape"
   sodipodi:docname="avatar2.2.svg"
   version="1.0"
   inkscape:version="0.48.3.1 r9886"
   sodipodi:version="0.32"
   id="svg2"
   height="800"
   width="800">
  <sodipodi:namedview
     id="base"
     pagecolor="#ffffff"
     bordercolor="#666666"
     borderopacity="1.0"
     gridtolerance="10000"
     guidetolerance="10"
     objecttolerance="10"
     inkscape:pageopacity="0.0"
     inkscape:pageshadow="2"
     inkscape:zoom="0.25"
     inkscape:cx="-1297.0648"
     inkscape:cy="8.31349"
     inkscape:document-units="px"
     inkscape:current-layer="g3980"
     showgrid="false"
     inkscape:window-width="1918"
     inkscape:window-height="1062"
     inkscape:window-x="0"
     inkscape:window-y="16"
     showguides="false"
     inkscape:guide-bbox="true"
     inkscape:window-maximized="0">
    <sodipodi:guide
       id="guide7709"
       position="72.338994,379.29094"
       orientation="0,1" />
    <sodipodi:guide
       id="guide7711"
       position="322.59281,138.81267"
       orientation="1,0" />
    <sodipodi:guide
       id="guide7713"
       position="467.2708,148.5882"
       orientation="1,0" />
    <sodipodi:guide
       id="guide7715"
       position="576.75685,7.8204318"
       orientation="1,0" />
    <sodipodi:guide
       id="guide7717"
       position="666.69181,0"
       orientation="1,0" />
    <sodipodi:guide
       id="guide7719"
       position="158.36374,111.44115"
       orientation="1,0" />
    <sodipodi:guide
       id="guide7721"
       position="43.012375,89.934966"
       orientation="1,0" />
  </sodipodi:namedview>
  <defs
     id="defs4">
    <marker
       style="overflow:visible;"
       id="Arrow2Lend"
       refX="0.0"
       refY="0.0"
       orient="auto"
       inkscape:stockid="Arrow2Lend">
      <path
         transform="scale(1.1) rotate(180) translate(1,0)"
         d="M 8.7185878,4.0337352 L -2.2072895,0.016013256 L 8.7185884,-4.0017078 C 6.9730900,-1.6296469 6.9831476,1.6157441 8.7185878,4.0337352 z "
         style="fill-rule:evenodd;stroke-width:0.62500000;stroke-linejoin:round;"
         id="path7433" />
    </marker>
    <marker
       style="overflow:visible"
       id="DotL"
       refX="0.0"
       refY="0.0"
       orient="auto"
       inkscape:stockid="DotL">
      <path
         transform="scale(0.8) translate(7.4, 1)"
         style="fill-rule:evenodd;stroke:#000000;stroke-width:1.0pt"
         d="M -2.5,-1.0 C -2.5,1.7600000 -4.7400000,4.0 -7.5,4.0 C -10.260000,4.0 -12.5,1.7600000 -12.5,-1.0 C -12.5,-3.7600000 -10.260000,-6.0 -7.5,-6.0 C -4.7400000,-6.0 -2.5,-3.7600000 -2.5,-1.0 z "
         id="path7473" />
    </marker>
    <marker
       orient="auto"
       refY="0"
       refX="0"
       id="InfiniteLineEnd"
       inkscape:stockid="InfiniteLineEnd"
       style="overflow:visible">
      <g
         id="g4304">
        <circle
           cx="3"
           cy="0"
           r="0.8"
           id="circle4306" />
        <circle
           cx="6.5"
           cy="0"
           r="0.8"
           id="circle4308" />
        <circle
           cx="10"
           cy="0"
           r="0.8"
           id="circle4310" />
      </g>
    </marker>
    <marker
       style="overflow:visible"
       id="Torso"
       refX="0.0"
       refY="0.0"
       orient="auto"
       inkscape:stockid="Torso">
      <g
         transform="scale(0.7)"
         id="g4281">
        <path
           style="fill:none;fill-opacity:0.75000000;fill-rule:evenodd;stroke:#000000;stroke-width:1.2500000;marker-start:none;marker-mid:none;marker-end:none"
           d="M -4.7792281,-3.2395420 C -2.4288541,-2.8736027 0.52103922,-1.3019943 0.25792722,0.38794346 C -0.0051877922,2.0778819 -2.2126741,2.6176539 -4.5630471,2.2517169 C -6.9134221,1.8857769 -8.5210350,0.75201414 -8.2579220,-0.93792336 C -7.9948090,-2.6278615 -7.1296041,-3.6054813 -4.7792281,-3.2395420 z "
           id="path4283" />
        <path
           style="fill:none;fill-opacity:0.75000000;fill-rule:evenodd;stroke:#000000;stroke-width:1.0000000pt;marker-end:none"
           d="M 4.4598789,0.088665736 C -2.5564571,-4.3783320 5.2248769,-3.9061806 -0.84829578,-8.7197331"
           id="path4285" />
        <path
           style="fill:none;fill-opacity:0.75000000;fill-rule:evenodd;stroke:#000000;stroke-width:1.0000000pt;marker-start:none;marker-end:none"
           d="M 4.9298719,0.057520736 C -1.3872731,1.7494689 1.8027579,5.4782079 -4.9448731,7.5462725"
           id="path4287" />
        <rect
           style="fill-rule:evenodd;stroke-width:1.0000000pt;marker-end:none"
           width="2.6366582"
           height="2.7608147"
           x="-10.391706"
           y="-1.7408575"
           transform="matrix(0.527536,-0.849533,0.887668,0.460484,0,0)"
           id="rect4289" />
        <rect
           style="fill-rule:evenodd;stroke-width:1.0000000pt;marker-end:none"
           width="2.7327356"
           height="2.8614161"
           x="4.9587269"
           y="-7.9629307"
           transform="matrix(0.671205,-0.741272,0.790802,0.612072,0,0)"
           id="rect4291" />
        <path
           sodipodi:type="arc"
           style="fill:#ff0000;fill-opacity:0.75000000;fill-rule:evenodd;stroke:#000000;stroke-width:1.0000000pt;marker-start:none;marker-end:none"
           sodipodi:cx="16.172634"
           sodipodi:cy="-28.685045"
           sodipodi:rx="0.60731727"
           sodipodi:ry="0.60731727"
           d="m 16.779951,-28.685045 c 0,0.335412 -0.271905,0.607317 -0.607317,0.607317 -0.335412,0 -0.607317,-0.271905 -0.607317,-0.607317 0,-0.335412 0.271905,-0.607318 0.607317,-0.607318 0.335412,0 0.607317,0.271906 0.607317,0.607318 z"
           transform="matrix(0,-1.109517,1.109517,0,25.96648,19.71619)"
           id="path4293" />
        <path
           sodipodi:type="arc"
           style="fill:#ff0000;fill-opacity:0.75000000;fill-rule:evenodd;stroke:#000000;stroke-width:1.0000000pt;marker-start:none;marker-end:none"
           sodipodi:cx="16.172634"
           sodipodi:cy="-28.685045"
           sodipodi:rx="0.60731727"
           sodipodi:ry="0.60731727"
           d="m 16.779951,-28.685045 c 0,0.335412 -0.271905,0.607317 -0.607317,0.607317 -0.335412,0 -0.607317,-0.271905 -0.607317,-0.607317 0,-0.335412 0.271905,-0.607318 0.607317,-0.607318 0.335412,0 0.607317,0.271906 0.607317,0.607318 z"
           transform="matrix(0,-1.109517,1.109517,0,26.82450,16.99126)"
           id="path4295" />
      </g>
    </marker>
    <marker
       style="overflow:visible"
       id="Tail"
       refX="0.0"
       refY="0.0"
       orient="auto"
       inkscape:stockid="Tail">
      <g
         transform="scale(-1.2)"
         id="g4104">
        <path
           style="fill:none;fill-rule:evenodd;stroke:#000000;stroke-width:0.8;marker-start:none;marker-end:none;stroke-linecap:round"
           d="M -3.8048674,-3.9585227 L 0.54352094,0"
           id="path4106" />
        <path
           style="fill:none;fill-rule:evenodd;stroke:#000000;stroke-width:0.8;marker-start:none;marker-end:none;stroke-linecap:round"
           d="M -1.2866832,-3.9585227 L 3.0617053,0"
           id="path4108" />
        <path
           style="fill:none;fill-rule:evenodd;stroke:#000000;stroke-width:0.8;marker-start:none;marker-end:none;stroke-linecap:round"
           d="M 1.3053582,-3.9585227 L 5.6537466,0"
           id="path4110" />
        <path
           style="fill:none;fill-rule:evenodd;stroke:#000000;stroke-width:0.8;marker-start:none;marker-end:none;stroke-linecap:round"
           d="M -3.8048674,4.1775838 L 0.54352094,0.21974226"
           id="path4112" />
        <path
           style="fill:none;fill-rule:evenodd;stroke:#000000;stroke-width:0.8;marker-start:none;marker-end:none;stroke-linecap:round"
           d="M -1.2866832,4.1775838 L 3.0617053,0.21974226"
           id="path4114" />
        <path
           style="fill:none;fill-rule:evenodd;stroke:#000000;stroke-width:0.8;marker-start:none;marker-end:none;stroke-linecap:round"
           d="M 1.3053582,4.1775838 L 5.6537466,0.21974226"
           id="path4116" />
      </g>
    </marker>
    <marker
       style="overflow:visible"
       id="TriangleOutS"
       refX="0.0"
       refY="0.0"
       orient="auto"
       inkscape:stockid="TriangleOutS">
      <path
         transform="scale(0.2)"
         style="fill-rule:evenodd;stroke:#000000;stroke-width:1.0pt;marker-start:none"
         d="M 5.77,0.0 L -2.88,5.0 L -2.88,-5.0 L 5.77,0.0 z "
         id="path4217" />
    </marker>
    <marker
       style="overflow:visible"
       id="Arrow1Lstart"
       refX="0.0"
       refY="0.0"
       orient="auto"
       inkscape:stockid="Arrow1Lstart">
      <path
         transform="scale(0.8) translate(12.5,0)"
         style="fill-rule:evenodd;stroke:#000000;stroke-width:1.0pt;marker-start:none"
         d="M 0.0,0.0 L 5.0,-5.0 L -12.5,0.0 L 5.0,5.0 L 0.0,0.0 z "
         id="path4068" />
    </marker>
    <inkscape:perspective
       id="perspective10"
       inkscape:persp3d-origin="372.04724 : 350.78739 : 1"
       inkscape:vp_z="744.09448 : 526.18109 : 1"
       inkscape:vp_y="0 : 1000 : 0"
       inkscape:vp_x="0 : 526.18109 : 1"
       sodipodi:type="inkscape:persp3d" />
    <inkscape:perspective
       sodipodi:type="inkscape:persp3d"
       inkscape:vp_x="0 : 526.18109 : 1"
       inkscape:vp_y="0 : 1000 : 0"
       inkscape:vp_z="744.09448 : 526.18109 : 1"
       inkscape:persp3d-origin="372.04724 : 350.78739 : 1"
       id="perspective2481" />
    <filter
       color-interpolation-filters="sRGB"
       inkscape:menu-tooltip="Glow of object's own color at the edges"
       inkscape:menu="Shadows and Glows"
       inkscape:label="Glow"
       id="filter3492">
      <feGaussianBlur
         result="result91"
         stdDeviation="5"
         id="feGaussianBlur3494" />
      <feComposite
         operator="over"
         in="SourceGraphic"
         in2="result91"
         id="feComposite3496" />
    </filter>
  </defs>
  <metadata
     id="metadata7">
    <rdf:RDF>
      <cc:Work
         rdf:about="">
        <dc:format>image/svg+xml</dc:format>
        <dc:type
           rdf:resource="http://purl.org/dc/dcmitype/StillImage" />
        <dc:title></dc:title>
      </cc:Work>
    </rdf:RDF>
  </metadata>
  <g
     inkscape:label="block"
     inkscape:groupmode="layer"
     id="g3334"
     style="display:inline">
    <g
       style="fill:#242424;fill-opacity:1;stroke:none;filter:url(#filter3492)"
       id="g3336">
      <path
         inkscape:connector-curvature="0"
         id="path3338"
         d="M 45.714286,88.571429 160,28.571429 725.71429,217.14286 728.57143,580 160,768.57143 45.928571,710.82143 z"
         style="fill:#242424;fill-opacity:1;fill-rule:evenodd;stroke:none"
         sodipodi:nodetypes="ccccccc" />
    </g>
  </g>
  <g
     inkscape:groupmode="layer"
     id="layer2"
     inkscape:label="block dark side">
    <path
       style="fill:#000000;stroke:none;stroke-width:1px;stroke-linecap:butt;stroke-linejoin:miter;stroke-opacity:1;opacity:0.1;fill-opacity:1"
       d="m 44,88.999998 116,-59 L 159.9829,768.97569 45.5625,711.4375 z"
       id="path3910"
       inkscape:connector-curvature="0" />
  </g>
  <g
     style="opacity:0.5;display:none"
     id="layer1"
     inkscape:groupmode="layer"
     inkscape:label="block (old)">
    <g
       id="g7705"
       style="stroke:none">
      <path
         inkscape:connector-curvature="0"
         style="fill:#242424;fill-opacity:1;fill-rule:evenodd;stroke:none"
         d="M 45.714286,88.571429 160,28.571429 725.71429,217.14286 728.57143,580 160,768.57143 l -88.571429,-60 L 45.714286,88.571429 z"
         id="path2487" />
    </g>
  </g>
  <g
     style="display:inline;opacity:1"
     inkscape:label="grid"
     id="layer3"
     inkscape:groupmode="layer">
    <path
       inkscape:connector-curvature="0"
       sodipodi:nodetypes="cc"
       id="path3325"
       d="M 160.4799,111.86146 723.91993,261.21775"
       style="fill:#222222;fill-opacity:1;fill-rule:evenodd;stroke:#404040;stroke-width:8;stroke-linecap:butt;stroke-linejoin:miter;stroke-miterlimit:4;stroke-opacity:1;stroke-dasharray:none;marker-start:none" />
    <path
       inkscape:connector-curvature="0"
       sodipodi:nodetypes="cc"
       id="path3335"
       d="m 161.17959,258.1327 564.34587,72.02347"
       style="fill:none;stroke:#404040;stroke-width:8;stroke-linecap:butt;stroke-linejoin:miter;stroke-miterlimit:4;stroke-opacity:1;stroke-dasharray:none" />
    <path
       inkscape:connector-curvature="0"
       sodipodi:nodetypes="cc"
       id="path3337"
       d="m 160.68492,412.58117 565.97591,-0.27071"
       style="fill:none;stroke:#404040;stroke-width:8;stroke-linecap:butt;stroke-linejoin:miter;stroke-miterlimit:4;stroke-opacity:1;stroke-dasharray:none" />
    <path
       inkscape:connector-curvature="0"
       sodipodi:nodetypes="cc"
       id="path3339"
       d="M 160.50869,565.09885 726.30965,483.82879"
       style="fill:none;stroke:#404040;stroke-width:8;stroke-linecap:butt;stroke-linejoin:miter;stroke-miterlimit:4.0999999;stroke-opacity:1;stroke-dasharray:none" />
    <path
       inkscape:connector-curvature="0"
       sodipodi:nodetypes="cc"
       id="path3341"
       d="M 161.20417,713.33792 726.13645,553.16855"
       style="fill:none;stroke:#404040;stroke-width:8;stroke-linecap:butt;stroke-linejoin:miter;stroke-miterlimit:4;stroke-opacity:1;stroke-dasharray:none" />
    <path
       inkscape:connector-curvature="0"
       sodipodi:nodetypes="cc"
       id="path3343"
       d="m 381.45084,105.39325 -0.33192,587.47939"
       style="fill:none;stroke:#404040;stroke-width:12;stroke-linecap:butt;stroke-linejoin:miter;stroke-miterlimit:4;stroke-opacity:1;stroke-dasharray:none" />
    <path
       inkscape:connector-curvature="0"
       sodipodi:nodetypes="cc"
       id="path3345"
       d="m 534.17415,155.21249 0.56533,487.42791"
       style="fill:none;stroke:#404040;stroke-width:10;stroke-linecap:butt;stroke-linejoin:miter;stroke-miterlimit:4;stroke-opacity:1;stroke-dasharray:none;marker-end:none" />
    <path
       inkscape:connector-curvature="0"
       sodipodi:nodetypes="cc"
       id="path3347"
       d="m 639.24025,189.74187 -0.1502,418.43949"
       style="fill:none;stroke:#404040;stroke-width:8;stroke-linecap:butt;stroke-linejoin:miter;stroke-miterlimit:4;stroke-opacity:1;stroke-dasharray:none" />
  </g>
  <g
     style="display:inline"
     inkscape:label="block outline"
     id="layer5"
     inkscape:groupmode="layer">
    <path
       inkscape:connector-curvature="0"
       style="fill:none;stroke:#000000;stroke-width:2;stroke-linecap:butt;stroke-linejoin:miter;stroke-miterlimit:4;stroke-opacity:1;stroke-dasharray:none;stroke-dashoffset:0;display:inline"
       d="m 160.09335,768.44924 -0.0871,-369.68722 -0.0871,-369.687216"
       id="path2511"
       sodipodi:nodetypes="ccc" />
    <path
       inkscape:connector-curvature="0"
       style="fill:none;stroke:#000000;stroke-width:2;stroke-linecap:butt;stroke-linejoin:miter;stroke-miterlimit:4;stroke-opacity:1;stroke-dasharray:none;stroke-dashoffset:0;display:inline"
       d="M 45.714286,88.571429 160,28.571429 725.71429,217.14286 728.57143,580 160,768.57143 45.678571,711.32143 z"
       id="path7737"
       sodipodi:nodetypes="ccccccc" />
  </g>
  <g
     style="opacity:0.25;display:none"
     inkscape:label="2*cos(x)"
     id="layer4"
     inkscape:groupmode="layer">
    <path
       inkscape:connector-curvature="0"
       title="sin(x)"
       d="m 177.51279,409.97045 c 1.38162,2.39739 2.75957,4.78852 4.13393,7.17258 1.3707,2.3778 2.73779,4.74849 4.10129,7.11158 1.35986,2.35679 2.71619,4.70601 4.06895,7.04689 1.34925,2.33476 2.69498,4.6612 4.03718,6.97874 1.33865,2.31147 2.67387,4.61407 4.00562,6.90707 1.32826,2.2871 2.65306,4.56464 3.97447,6.83206 1.318,2.26154 2.63264,4.51296 3.94385,6.75359 1.30782,2.23489 2.61229,4.4591 3.91347,6.67197 1.29775,2.20718 2.59222,4.40306 3.88338,6.5871 1.28785,2.17837 2.57246,4.34494 3.85384,6.49904 1.27806,2.14863 2.5529,4.28478 3.82452,6.40799 1.26837,2.11781 2.53361,4.22264 3.79563,6.31392 1.25883,2.08603 2.51453,4.15855 3.76701,6.21698 1.24938,2.05327 2.49566,4.0925 3.73878,6.11715 1.24009,2.01959 2.47703,4.02461 3.71097,6.0146 1.2308,1.98496 2.45861,3.95491 3.68332,5.90924 1.2217,1.94953 2.44039,3.8835 3.65611,5.80146 1.2127,1.91318 2.42243,3.8104 3.62922,5.69104 1.20378,1.87599 2.40466,3.73555 3.60259,5.57815 1.19504,1.83804 2.38716,3.6592 3.57634,5.46283 1.18634,1.79937 2.3698,3.58133 3.55037,5.34543 1.17775,1.7598 2.35264,3.50182 3.52474,5.22562 1.16923,1.71959 2.33567,3.421 3.49936,5.10373 1.16087,1.67869 2.31893,3.33882 3.47434,4.97981 1.15251,1.63708 2.30239,3.25519 3.44952,4.85389 1.14434,1.59489 2.28607,3.17039 3.42506,4.72612 1.13628,1.55203 2.26993,3.08433 3.40087,4.59652 1.12832,1.5086 2.254,2.99715 3.37703,4.46521 1.12036,1.4646 2.23818,2.90879 3.35334,4.33225 1.1126,1.42004 2.22257,2.81943 3.33004,4.19777 1.10481,1.37508 2.20713,2.72909 3.30692,4.06177 1.09724,1.32956 2.19194,2.63779 3.28417,3.92442 1.08964,1.28358 2.17683,2.54563 3.26158,3.78578 1.08222,1.23728 2.16193,2.45264 3.23931,3.64591 1.07485,1.19051 2.14725,2.35889 3.21724,3.50492 1.06758,1.14341 2.13272,2.26445 3.19548,3.36291 1.06038,1.09591 2.11837,2.16929 3.17399,3.21986 1.05323,1.04819 2.10413,2.0736 3.15268,3.07608 1.04618,1.00012 2.09008,1.9773 3.13167,2.93135 1.03922,0.95182 2.07618,1.88059 3.11081,2.78597 1.03236,0.90336 2.06243,1.78341 3.09029,2.64001 1.02553,0.85465 2.04885,1.68587 3.06993,2.49347 1.01879,0.8058 2.03541,1.58799 3.04984,2.3465 1.01215,0.75683 2.02212,1.48987 3.02994,2.19916 1.00556,0.70771 2.00901,1.39158 3.01028,2.05153 0.99906,0.65853 1.99603,1.29308 2.99084,1.90373 0.99264,0.60922 1.98317,1.19451 2.97163,1.75572 0.98626,0.55997 1.9705,1.09591 2.95261,1.60773 0.97998,0.51071 1.95788,0.99732 2.93379,1.45982 0.9738,0.46145 1.94547,0.89881 2.91519,1.312 0.96761,0.41224 1.93323,0.80036 2.89682,1.16439 0.96154,0.36313 1.92105,0.70213 2.87861,1.01698 0.95551,0.31419 1.90902,0.60417 2.8606,0.8701 0.94953,0.26526 1.89715,0.50643 2.84281,0.7235 0.94362,0.21661 1.88538,0.40911 2.82521,0.57751 0.93782,0.16788 1.87372,0.31213 2.80772,0.4322 0.93208,0.11996 1.86224,0.21552 2.79055,0.28738 0.92633,0.0718 1.8508,0.11941 2.77345,0.14361 0.92071,0.0241 1.83955,0.0241 2.75657,2.6e-4 0.91509,-0.0237 1.82839,-0.0708 2.7399,-0.14207 0.90958,-0.0705 1.81736,-0.16537 2.72333,-0.28321 0.90412,-0.11761 1.80641,-0.25896 2.70698,-0.42347 0.89871,-0.16422 1.79565,-0.35179 2.69079,-0.56256 0.89333,-0.21035 1.78494,-0.44389 2.67482,-0.7005 0.88799,-0.25614 1.7743,-0.53513 2.65886,-0.8372 0.88279,-0.3013 1.76388,-0.6256 2.64322,-0.9725 0.87757,-0.34617 1.75348,-0.71506 2.62766,-1.10641 0.87245,-0.39057 1.74319,-0.80362 2.61228,-1.23895 0.86734,-0.4344 1.73304,-0.89113 2.59705,-1.36987 0.86229,-0.47776 1.72297,-0.97761 2.58198,-1.49926 0.85727,-0.52059 1.71296,-1.06302 2.56703,-1.62694 0.85231,-0.5629 1.70306,-1.14732 2.55221,-1.75305 0.84743,-0.60446 1.69331,-1.23035 2.53759,-1.87724 0.84257,-0.64554 1.68362,-1.31221 2.52306,-1.99961 0.83782,-0.686 1.67404,-1.39282 2.5087,-2.12011 0.83304,-0.72587 1.66452,-1.4722 2.49446,-2.23876 0.82834,-0.76494 1.65511,-1.55019 2.48036,-2.35522 0.82369,-0.80351 1.64578,-1.62689 2.46642,-2.46981 0.81903,-0.84125 1.63654,-1.70211 2.45257,-2.58221 0.81442,-0.87828 1.62739,-1.77586 2.43883,-2.69236 0.80988,-0.91469 1.61832,-1.84835 2.42529,-2.8005 0.80537,-0.95025 1.60928,-1.91912 2.41177,-2.90618 0.80094,-0.98514 1.60041,-1.98855 2.39846,-3.0097 0.79651,-1.01918 1.59159,-2.05627 2.38521,-3.11081 0.79213,-1.05249 1.58283,-2.12247 2.37216,-3.20955 0.78774,-1.08496 1.57407,-2.187 2.35905,-3.30579 0.78351,-1.11665 1.56559,-2.25006 2.34627,-3.39971 0.77919,-1.14741 1.55702,-2.3112 2.33343,-3.49088 0.77502,-1.17743 1.54855,-2.37075 2.32079,-3.57966 0.7708,-1.20656 1.5402,-2.42867 2.30823,-3.66585 0.76664,-1.23478 1.53188,-2.48469 2.29584,-3.74932 0.76241,-1.26219 1.52359,-2.53912 2.28335,-3.83023 0.75842,-1.28867 1.51547,-2.59164 2.27119,-3.90836 0.75433,-1.31427 1.50735,-2.64235 2.25901,-3.98384 0.75034,-1.33889 1.49929,-2.69127 2.24698,-4.05654 0.7463,-1.36267 1.4913,-2.73832 2.23501,-4.12646 0.74235,-1.38553 1.4834,-2.78355 2.22315,-4.19356 0.7384,-1.4074 1.4755,-2.82688 2.21137,-4.25789 0.73448,-1.4284 1.4677,-2.86831 2.19968,-4.31939 0.73064,-1.44834 1.45998,-2.90781 2.18811,-4.37791 0.72673,-1.46739 1.45229,-2.94544 2.17656,-4.43365 0.72298,-1.48546 1.44469,-2.98115 2.16518,-4.48646 0.71915,-1.50257 1.4371,-3.01485 2.15381,-4.53632 0.71538,-1.51873 1.42961,-3.04665 2.14255,-4.58328 0.71168,-1.53387 1.42215,-3.07646 2.13138,-4.62732 0.70797,-1.54801 1.41473,-3.1043 2.12033,-4.66839 0.70426,-1.56116 1.40737,-3.13021 2.10926,-4.70641 0.70063,-1.57341 1.40008,-3.15416 2.09834,-4.74158 0.69699,-1.58464 1.39283,-3.17603 2.08748,-4.77374 0.6934,-1.59484 1.38561,-3.19601 2.07668,-4.80292 0.68981,-1.60408 1.37847,-3.21398 2.06593,-4.82913 0.68626,-1.61232 1.37138,-3.2299 2.0553,-4.85233 0.68277,-1.61957 1.36433,-3.24391 2.04475,-4.87256 0.67924,-1.62581 1.35732,-3.25596 2.03425,-4.88989 0.67572,-1.63103 1.35033,-3.26589 2.02376,-4.90416 0.6723,-1.63533 1.34342,-3.27398 2.01341,-4.91543 0.66888,-1.63864 1.33653,-3.28013 2.00312,-4.92388 0.66543,-1.64091 1.32968,-3.28417 1.99287,-4.92925 0.66201,-1.64225 1.32292,-3.28636 1.98268,-4.93177 0.65862,-1.6426 1.31613,-3.28656 1.97254,-4.93139 0.65528,-1.6419 1.30941,-3.28479 1.96245,-4.92797 0.65198,-1.6404 1.30283,-3.28117 1.95257,-4.92179 0.64858,-1.63779 1.29612,-3.27552 1.94253,-4.91263 0.64532,-1.63433 1.28954,-3.26809 1.9327,-4.90077 0.64204,-1.62985 1.283,-3.25859 1.92283,-4.88587 0.6388,-1.62449 1.27648,-3.24743 1.9131,-4.86832 0.63556,-1.61814 1.26995,-3.23428 1.90337,-4.84787 0.63231,-1.61091 1.26353,-3.21932 1.8937,-4.82474 0.6291,-1.60276 1.25712,-3.20251 1.8841,-4.79887 0.62592,-1.5936 1.25076,-3.18379 1.87454,-4.77017 0.62275,-1.58367 1.24443,-3.16346 1.86506,-4.73888 0.61958,-1.57284 1.23814,-3.14134 1.85561,-4.70499 0.61644,-1.56104 1.23186,-3.11732 1.84617,-4.66838 0.61333,-1.54842 1.22562,-3.09166 1.83686,-4.62927 0.61025,-1.53498 1.21936,-3.0643 1.8275,-4.58751 0.60718,-1.52067 1.21329,-3.03527 1.81832,-4.54333 0.60408,-1.50552 1.20712,-3.00452 1.8091,-4.49662 0.60105,-1.48957 1.201,-2.97216 1.79996,-4.44747 0.59794,-1.47288 1.1949,-2.93829 1.79082,-4.39593 0.59493,-1.45529 1.18885,-2.90279 1.78175,-4.34208 0.59191,-1.43696 1.18283,-2.86569 1.77277,-4.28584 0.58893,-1.4179 1.17685,-2.82711 1.76374,-4.2274 0.58594,-1.39798 1.1709,-2.78701 1.75486,-4.16668 0.58295,-1.37743 1.16497,-2.7455 1.74593,-4.10381 0.58003,-1.35609 1.15908,-2.70245 1.73712,-4.0387 0.57711,-1.33415 1.15317,-2.65814 1.72834,-3.9717 0.57416,-1.31142 1.14734,-2.61236 1.71952,-3.90248 0.57126,-1.28809 1.14153,-2.5653 1.71083,-3.83137 0.5684,-1.2641 1.13579,-2.51696 1.7022,-3.75835 0.56549,-1.23936 1.13,-2.46728 1.69354,-3.68333 0.56263,-1.21409 1.1243,-2.4164 1.68497,-3.60652 0.55977,-1.18827 1.11856,-2.36431 1.6764,-3.52799 0.55693,-1.16178 1.1129,-2.31105 1.66789,-3.44765 0.55415,-1.13476 1.10727,-2.2567 1.65944,-3.36566 0.55131,-1.10719 1.10168,-2.20136 1.651,-3.28211 0.54854,-1.0791 1.0961,-2.14482 1.64269,-3.19699 0.54569,-1.05042 1.09044,-2.08725 1.63426,-3.11025 0.54295,-1.02135 1.08495,-2.02888 1.62597,-3.0222 0.54018,-0.99178 1.07944,-1.96943 1.61772,-2.93265 0.53744,-0.96181 1.07394,-1.90918 1.60952,-2.84195 0.53469,-0.93126 1.06847,-1.84796 1.60127,-2.74984 0.53198,-0.90041 1.06304,-1.78596 1.59318,-2.65649 0.52929,-0.86913 1.05762,-1.72321 1.58506,-2.56209 0.52656,-0.83747 1.05224,-1.65973 1.57696,-2.46653 0.52393,-0.80556 1.04692,-1.59562 1.56898,-2.36997 0.52122,-0.77325 1.04155,-1.53075 1.56095,-2.27253 0.51857,-0.74053 1.03624,-1.4653 1.553,-2.17401 0.51591,-0.70767 1.03097,-1.39931 1.54509,-2.07482 0.51328,-0.67447 1.02576,-1.33271 1.53722,-1.97474 0.51071,-0.641 1.02051,-1.2657 1.52937,-1.87395 0.50814,-0.60738 1.0153,-1.19827 1.52161,-1.77261 0.50553,-0.57346 1.01012,-1.13036 1.51382,-1.67062 0.50296,-0.53935 1.005,-1.06203 1.50612,-1.56803 0.50038,-0.50513 0.99986,-0.99347 1.49842,-1.46498 0.4978,-0.47078 0.99478,-0.92474 1.49082,-1.36168 0.49526,-0.43629 0.9897,-0.85559 1.4832,-1.25788 0.49274,-0.4017 0.9846,-0.78635 1.47563,-1.1539 0.49022,-0.36702 0.97963,-0.71691 1.46808,-1.04969 0.48774,-0.33225 0.97463,-0.64732 1.46064,-0.94526 0.48525,-0.2975 0.96965,-0.57777 1.45314,-0.84082 0.48282,-0.26266 0.96474,-0.50808 1.44581,-0.73631 0.48033,-0.22788 0.95982,-0.43848 1.43842,-0.63187 0.47786,-0.19312 0.95488,-0.36891 1.43109,-0.52748 0.47543,-0.15844 0.95003,-0.29944 1.42377,-0.42329 0.47305,-0.12356 0.94524,-0.23013 1.41656,-0.31936 0.47066,-0.0889 0.94039,-0.16075 1.40935,-0.21555 0.46823,-0.0547 0.93568,-0.0923 1.40221,-0.1122 0.46585,-0.0202 0.93085,-0.0233 1.39504,-0.008 0.46349,0.0139 0.92617,0.045 1.38798,0.0932 0.46116,0.0479 0.92147,0.11318 1.38096,0.19522 0.4588,0.0821 0.91678,0.18097 1.37394,0.29664 0.45647,0.11525 0.91216,0.24811 1.36695,0.39742 0.45418,0.14919 0.90753,0.31501 1.36009,0.49748 0.45187,0.1823 0.90296,0.38129 1.35321,0.59683 0.44954,0.21531 0.89835,0.44709 1.34632,0.69544 0.44732,0.24788 0.89386,0.51229 1.33957,0.79303 0.4451,0.28033 0.88937,0.57699 1.33284,0.88981 0.4428,0.31241 0.88487,0.64104 1.32612,0.98567 0.44059,0.34411 0.88037,0.70435 1.31942,1.08041 0.43842,0.37553 0.87599,0.76696 1.31281,1.17413 0.43621,0.40657 0.87162,0.82886 1.30626,1.26672 0.43398,0.4372 0.86722,0.89002 1.29971,1.35817 0.43184,0.46748 0.86289,0.95033 1.29321,1.44837 0.42967,0.4973 0.85859,1.00979 1.28679,1.53731 0.42753,0.52671 0.85432,1.06847 1.28035,1.62495 0.42537,0.55566 0.85007,1.12616 1.27398,1.71117 0.42332,0.58416 0.8459,1.18294 1.26772,1.79601 0.42121,0.61221 0.84166,1.23877 1.26139,1.87947 0.41915,0.63973 0.83753,1.29364 1.25523,1.96134 0.41702,0.66679 0.83339,1.34749 1.24896,2.04174 0.41501,0.69332 0.8293,1.40023 1.2429,2.12054 0.41297,0.71924 0.82523,1.45192 1.23679,2.19775 0.41092,0.74474 0.82116,1.50254 1.23073,2.27325 0.40891,0.76959 0.81716,1.55203 1.2247,2.34707 0.40697,0.79391 0.81322,1.6004 1.21875,2.41921 0.40501,0.81761 0.80927,1.64757 1.21291,2.48954 0.40299,0.84076 0.80535,1.69353 1.20697,2.55802 0.40104,0.86333 0.80141,1.73836 1.20115,2.62481 0.39912,0.88522 0.79762,1.7819 1.19541,2.68971 0.39722,0.90644 0.79377,1.82407 1.18965,2.75253 0.39534,0.92717 0.79001,1.86512 1.184,2.81359 0.39344,0.94718 0.78622,1.90494 1.17835,2.87277 0.39155,0.96644 0.7825,1.94321 1.17279,2.92978 0.38969,0.98521 0.77876,1.9803 1.16719,2.98495 0.38787,1.00315 0.77513,2.01601 1.16174,3.03796 0.38606,1.02055 0.77148,2.05035 1.15628,3.08902 0.38424,1.03717 0.76785,2.08331 1.15086,3.13793 0.38247,1.05322 0.76432,2.11497 1.14551,3.18491 0.38072,1.0684 0.76077,2.14508 1.14021,3.22955 0.37894,1.08303 0.75725,2.17386 1.13494,3.27223 0.37721,1.09687 0.7538,2.20122 1.12976,3.31277 0.37545,1.10993 0.75031,2.22709 1.12456,3.35098 0.37374,1.1224 0.74684,2.25161 1.11945,3.38726 0.37204,1.13402 0.74347,2.27455 1.11438,3.42114 0.37031,1.145 0.74012,2.29614 1.10932,3.45295 0.36871,1.15527 0.73682,2.31623 1.10436,3.48255 0.36706,1.16469 0.73354,2.33478 1.09944,3.50993 0.3654,1.17343 0.73024,2.3519 1.09455,3.53503 0.36376,1.18145 0.72699,2.36761 1.08968,3.55798 0.36219,1.18874 0.72384,2.38174 1.08491,3.57863 0.3606,1.19529 0.72067,2.3945 1.08017,3.59717 0.35903,1.20104 0.7175,2.40564 1.07545,3.61334 0.35746,1.20608 0.71439,2.41536 1.07079,3.62741 0.35595,1.21036 0.71135,2.42355 1.06621,3.63912 0.35441,1.21392 0.70828,2.43025 1.06167,3.64867 0.35287,1.21674 0.70522,2.43551 1.05711,3.65597 0.35139,1.21885 0.70223,2.43931 1.05261,3.66112 0.34992,1.22012 0.69933,2.44159 1.04821,3.66396 0.3485,1.22071 0.69645,2.4424 1.04392,3.66465 0.34697,1.22059 0.6935,2.44177 1.03948,3.66309 0.34555,1.21973 0.69068,2.43966 1.03525,3.65941 0.34413,1.21813 0.6878,2.4361 1.03099,3.65354 0.34275,1.21584 0.68498,2.43106 1.02679,3.64548 0.34136,1.21279 0.6822,2.42464 1.02263,3.63528 0.33997,1.20902 0.67947,2.41675 1.01855,3.62296"
       style="fill:none;stroke:#ffffff;stroke-width:22.07437134;stroke-linecap:butt;stroke-linejoin:round;stroke-miterlimit:4;stroke-opacity:1;stroke-dasharray:11.03718564, 11.03718564;stroke-dashoffset:0;marker-start:none;marker-mid:none"
       id="path5215" />
  </g>
  <g
     inkscape:groupmode="layer"
     id="g3980"
     inkscape:label="cos(x)"
     style="opacity:1;display:inline">
    <path
       id="path3982"
       style="fill:none;stroke:#808080;stroke-width:16;stroke-linecap:butt;stroke-linejoin:round;stroke-miterlimit:4;stroke-opacity:1;stroke-dasharray:8, 8;stroke-dashoffset:1.60000000000000009;marker-start:none;marker-mid:none"
       d="m 174.47561,410.06875 c 1.39736,1.24533 2.79101,2.4874 4.18101,3.7258 1.38632,1.23515 2.76899,2.4666 4.14802,3.69411 1.37535,1.22424 2.74712,2.44454 4.1153,3.66051 1.36462,1.21279 2.72567,2.42126 4.08316,3.62511 1.35391,1.20069 2.70434,2.39678 4.05126,3.58788 1.34339,1.18803 2.68329,2.3711 4.01975,3.54891 1.33301,1.17476 2.66262,2.34426 3.98877,3.50816 1.32272,1.16091 2.64205,2.31628 3.95805,3.46575 1.31254,1.14652 2.62175,2.28717 3.92762,3.42167 1.30252,1.13156 2.60176,2.25698 3.89774,3.37593 1.29262,1.11611 2.58199,2.22573 3.86809,3.32863 1.28282,1.1001 2.56247,2.19345 3.83887,3.27977 1.27317,1.08359 2.54317,2.16016 3.80993,3.22941 1.26361,1.06657 2.52408,2.12585 3.78137,3.17756 1.25421,1.04907 2.50524,2.09058 3.75324,3.12428 1.24481,1.03109 2.48662,2.05438 3.72528,3.06956 1.23561,1.01268 2.46818,2.01728 3.69775,3.01357 1.22652,0.9938 2.45003,1.97931 3.67057,2.95621 1.21748,0.97448 2.43205,1.94043 3.64363,2.89757 1.20865,0.95477 2.41435,1.90077 3.61707,2.83767 1.19986,0.93468 2.3968,1.86032 3.59082,2.77668 1.19117,0.91413 2.37944,1.81902 3.56489,2.71445 1.18256,0.89324 2.36228,1.77704 3.53923,2.65113 1.17409,0.872 2.34534,1.73435 3.51391,2.58677 1.16564,0.85038 2.32862,1.69091 3.48882,2.52135 1.15738,0.82847 2.31212,1.64686 3.46408,2.45499 1.14922,0.8062 2.29579,1.60215 3.43961,2.38766 1.14118,0.78364 2.27967,1.55687 3.4155,2.31945 1.13313,0.76079 2.26367,1.51098 3.39154,2.25039 1.12527,0.73764 2.24789,1.46456 3.36798,2.18053 1.11739,0.71429 2.23227,1.41763 3.34458,2.10989 1.10975,0.69064 2.21691,1.3702 3.32158,2.03854 1.10206,0.66676 2.20164,1.32233 3.29874,1.96653 1.09455,0.6427 2.18656,1.27402 3.27621,1.89386 1.08709,0.61841 2.17171,1.22533 3.25389,1.82064 1.07975,0.59394 2.15701,1.17627 3.23189,1.74686 1.07245,0.56927 2.14249,1.12684 3.21014,1.67256 1.06523,0.54448 2.1281,1.07713 3.1886,1.59787 1.0581,0.51951 2.11388,1.02711 3.16734,1.52269 1.05106,0.49442 2.09983,0.97687 3.14625,1.44717 1.04412,0.46925 2.08593,0.92639 3.12549,1.37135 1.03722,0.44395 2.07219,0.87573 3.1049,1.29524 1.0304,0.41857 2.0586,0.82488 3.08459,1.21889 1.02368,0.39313 2.04515,0.77391 3.06445,1.14235 1.01701,0.36762 2.0319,0.72286 3.04458,1.06567 1.01044,0.34207 2.01876,0.67169 3.0249,0.98889 1.00395,0.31646 2.00576,0.62049 3.00549,0.91201 0.99749,0.29088 1.99294,0.56927 2.98624,0.83514 0.99115,0.26529 1.98019,0.51806 2.96722,0.7583 0.98488,0.2397 1.96763,0.46689 2.94839,0.68152 0.97864,0.21414 1.95525,0.41575 2.92982,0.60484 0.97249,0.18863 1.94293,0.36472 2.9114,0.52827 0.96639,0.16321 1.93076,0.31384 2.89319,0.45198 0.96034,0.13779 1.91876,0.26306 2.87519,0.37582 0.95438,0.11252 1.90686,0.21251 2.8574,0.29999 0.9485,0.0872 1.89506,0.16213 2.8397,0.2245 0.9427,0.0623 1.88345,0.11195 2.82234,0.14928 0.93689,0.0373 1.87188,0.062 2.80505,0.0746 0.93119,0.0125 1.8605,0.0125 2.78797,1.4e-4 0.92551,-0.0123 1.84921,-0.0368 2.77111,-0.0738 0.91994,-0.0366 1.83807,-0.0859 2.75435,-0.14712 0.91442,-0.0611 1.82699,-0.13451 2.73782,-0.21997 0.90894,-0.0853 1.8161,-0.18273 2.72145,-0.29222 0.9035,-0.10927 1.80526,-0.23058 2.70528,-0.36387 0.89811,-0.13306 1.79451,-0.27798 2.68915,-0.43489 0.89285,-0.15651 1.78397,-0.32497 2.67333,-0.50516 0.88757,-0.17982 1.77346,-0.37144 2.65759,-0.57473 0.88239,-0.20288 1.76306,-0.41744 2.64204,-0.64357 0.87722,-0.22565 1.75278,-0.4629 2.62664,-0.71158 0.87211,-0.24817 1.7426,-0.50782 2.61139,-0.77879 0.86704,-0.27042 1.73247,-0.55219 2.59627,-0.84512 0.86202,-0.29239 1.72246,-0.59597 2.58129,-0.91062 0.85708,-0.31399 1.71259,-0.6391 2.56649,-0.97513 0.85217,-0.33533 1.70281,-0.68163 2.5518,-1.0387 0.84737,-0.35634 1.69311,-0.7235 2.53729,-1.10129 0.84252,-0.37705 1.68348,-0.76473 2.52287,-1.16293 0.83777,-0.39734 1.67396,-0.80524 2.50862,-1.22341 0.83307,-0.41739 1.66453,-0.84509 2.49452,-1.28295 0.82836,-0.43698 1.65518,-0.88416 2.4805,-1.34133 0.8237,-0.45622 1.64593,-0.92247 2.46662,-1.39854 0.8191,-0.47514 1.63675,-0.96013 2.45291,-1.45472 0.81455,-0.49361 1.62762,-0.99689 2.43925,-1.50962 0.81005,-0.51173 1.61864,-1.03295 2.42578,-1.56339 0.80558,-0.52941 1.60972,-1.06813 2.41238,-1.61591 0.80115,-0.54672 1.60086,-1.10252 2.39918,-1.6672 0.79672,-0.56359 1.59201,-1.13604 2.38593,-1.7172 0.79243,-0.58004 1.58341,-1.16879 2.37299,-1.76597 0.78807,-0.59603 1.57476,-1.20056 2.36001,-1.81334 0.78385,-0.61162 1.5662,-1.23149 2.34723,-1.85946 0.77958,-0.62675 1.55775,-1.26157 2.33453,-1.90422 0.77537,-0.64141 1.54933,-1.29068 2.32199,-1.94759 0.7711,-0.65564 1.54094,-1.31895 2.30936,-1.98961 0.76706,-0.6694 1.53273,-1.34623 2.29706,-2.0302 0.76293,-0.6827 1.52452,-1.37257 2.28475,-2.06941 0.75888,-0.69549 1.51636,-1.39798 2.27258,-2.10717 0.75479,-0.70784 1.50828,-1.42242 2.26047,-2.14349 0.7508,-0.71971 1.50029,-1.44591 2.24847,-2.17835 0.74681,-0.73107 1.49231,-1.46842 2.23656,-2.21176 0.74285,-0.74198 1.48442,-1.48994 2.22474,-2.2437 0.73896,-0.75235 1.47661,-1.51047 2.21303,-2.27411 0.73501,-0.76224 1.46884,-1.53001 2.20136,-2.30306 0.73122,-0.77162 1.46114,-1.54856 2.18984,-2.33049 0.72735,-0.78052 1.45347,-1.56607 2.17835,-2.3564 0.72353,-0.7889 1.44589,-1.58258 2.16695,-2.38078 0.7198,-0.79677 1.43836,-1.59807 2.15567,-2.40366 0.71603,-0.80412 1.43084,-1.61253 2.14448,-2.425 0.71229,-0.81095 1.4234,-1.62599 2.13329,-2.44475 0.70861,-0.8173 1.41603,-1.63842 2.12224,-2.46301 0.70493,-0.82314 1.4087,-1.64979 2.11126,-2.47972 0.7013,-0.82844 1.40139,-1.66017 2.10034,-2.49488 0.69767,-0.83324 1.39417,-1.6695 2.08947,-2.50849 0.69408,-0.83752 1.387,-1.67777 2.07871,-2.52054 0.69055,-0.84129 1.37987,-1.68506 2.06804,-2.53106 0.68697,-0.84453 1.37278,-1.69131 2.05742,-2.54005 0.68342,-0.84724 1.36571,-1.69647 2.04682,-2.54747 0.67995,-0.84947 1.35872,-1.70067 2.03635,-2.55332 0.67649,-0.85119 1.35175,-1.70386 2.02593,-2.55771 0.67301,-0.85237 1.34483,-1.70596 2.01557,-2.5605 0.66956,-0.85307 1.33799,-1.7071 2.00527,-2.56181 0.66613,-0.85325 1.33112,-1.7072 1.99501,-2.56161 0.66274,-0.85289 1.32432,-1.70629 1.98481,-2.55984 0.65941,-0.8521 1.31767,-1.7044 1.97481,-2.55662 0.65597,-0.85075 1.31088,-1.70147 1.96466,-2.55187 0.65267,-0.84895 1.30422,-1.69761 1.95472,-2.5457 0.64934,-0.84663 1.29761,-1.69268 1.94473,-2.53797 0.64608,-0.84384 1.29102,-1.68688 1.93489,-2.52885 0.6428,-0.84054 1.28442,-1.68005 1.92505,-2.51823 0.63951,-0.83678 1.27792,-1.67227 1.91528,-2.50621 0.63627,-0.83255 1.27144,-1.66354 1.90556,-2.49277 0.63305,-0.8278 1.265,-1.65382 1.89589,-2.47787 0.62985,-0.82264 1.25861,-1.64326 1.88631,-2.46161 0.62664,-0.81701 1.25224,-1.63177 1.87675,-2.44401 0.62346,-0.81088 1.24589,-1.61929 1.8672,-2.42499 0.62031,-0.80433 1.23958,-1.60596 1.85779,-2.40467 0.61719,-0.79735 1.23325,-1.59176 1.84832,-2.38299 0.61409,-0.78991 1.2271,-1.57667 1.83903,-2.36003 0.61096,-0.78204 1.22086,-1.5607 1.82971,-2.33577 0.60789,-0.77376 1.21467,-1.54389 1.82046,-2.31024 0.60475,-0.76509 1.20852,-1.5263 1.81122,-2.28347 0.60171,-0.75595 1.20239,-1.50785 1.80205,-2.25549 0.59865,-0.74643 1.19631,-1.48858 1.79296,-2.22628 0.59564,-0.73653 1.19025,-1.46855 1.78383,-2.19593 0.59262,-0.72618 1.18425,-1.44771 1.77486,-2.16438 0.58958,-0.71551 1.17823,-1.42615 1.76582,-2.13172 0.58664,-0.70442 1.17228,-1.40379 1.7569,-2.09791 0.58368,-0.69302 1.16631,-1.38077 1.74803,-2.0631 0.5807,-0.68121 1.16041,-1.35699 1.7391,-2.02714 0.57778,-0.6691 1.15455,-1.33255 1.73033,-1.99021 0.57488,-0.65663 1.14873,-1.30743 1.72159,-1.95227 0.57193,-0.64379 1.14287,-1.28163 1.71283,-1.91331 0.56904,-0.63066 1.13711,-1.2552 1.70417,-1.87341 0.56614,-0.61724 1.1313,-1.22814 1.69549,-1.83261 0.56328,-0.60349 1.12558,-1.20048 1.68689,-1.79088 0.56046,-0.58946 1.11989,-1.17225 1.67835,-1.7483 0.55759,-0.57513 1.11422,-1.14349 1.6698,-1.70489 0.55479,-0.56054 1.10859,-1.11413 1.6614,-1.66068 0.55191,-0.54564 1.10287,-1.08422 1.65288,-1.61562 0.54914,-0.53054 1.09732,-1.0539 1.6445,-1.56988 0.54633,-0.51518 1.09173,-1.02302 1.63614,-1.52337 0.54357,-0.49961 1.08618,-0.99172 1.62786,-1.47625 0.54078,-0.48374 1.08064,-0.95992 1.61951,-1.4284 0.53804,-0.46772 1.07515,-0.92772 1.61133,-1.37992 0.53531,-0.45147 1.06967,-0.89512 1.60311,-1.33087 0.53256,-0.43503 1.06423,-0.86215 1.59493,-1.28124 0.52989,-0.41845 1.05884,-0.82885 1.58686,-1.23109 0.52715,-0.40166 1.05341,-0.79514 1.57872,-1.18046 0.52449,-0.38467 1.04805,-0.76115 1.57069,-1.12929 0.52179,-0.3676 1.04272,-0.72687 1.5627,-1.07777 0.51913,-0.35035 1.03744,-0.69227 1.55473,-1.02578 0.51652,-0.33296 1.03213,-0.65747 1.54679,-0.97342 0.51393,-0.3155 1.02686,-0.62244 1.53894,-0.92078 0.51129,-0.29789 1.02163,-0.58717 1.53107,-0.86781 0.50869,-0.28016 1.01645,-0.55167 1.52327,-0.81451 0.50609,-0.26239 1.01126,-0.51606 1.5155,-0.76099 0.50347,-0.24454 1.00611,-0.48035 1.5078,-0.70732 0.5009,-0.22663 1.00097,-0.44444 1.50009,-0.65341 0.49836,-0.20866 0.99583,-0.40847 1.49245,-0.59939 0.4958,-0.19065 0.99078,-0.3724 1.4848,-0.54526 0.49329,-0.17259 0.98573,-0.33625 1.47727,-0.49102 0.49078,-0.15453 0.98071,-0.30012 1.4697,-0.43676 0.48833,-0.13644 0.97573,-0.26392 1.46228,-0.38248 0.4858,-0.11837 0.97076,-0.22776 1.45481,-0.32822 0.4833,-0.10032 0.96576,-0.19163 1.44739,-0.274 0.48085,-0.0823 0.96085,-0.15555 1.43999,-0.21988 0.47844,-0.0642 0.95601,-0.11954 1.43269,-0.16589 0.47602,-0.0462 0.95111,-0.0835 1.42541,-0.11197 0.47357,-0.0284 0.94634,-0.0479 1.41818,-0.0583 0.47116,-0.0105 0.94146,-0.0121 1.41094,-0.004 0.46876,0.007 0.93672,0.0234 1.40379,0.0484 0.46641,0.0249 0.93196,0.0588 1.39669,0.10141 0.46403,0.0427 0.92722,0.094 1.38959,0.15409 0.46167,0.0599 0.92255,0.12888 1.38252,0.20643 0.45936,0.0775 0.91787,0.16364 1.37559,0.25842 0.45701,0.0947 0.91324,0.19806 1.36862,0.31003 0.45467,0.11184 0.90858,0.23224 1.36166,0.36124 0.45242,0.12876 0.90404,0.26611 1.35483,0.41194 0.45017,0.14562 0.8995,0.29972 1.34802,0.46221 0.44785,0.16229 0.89495,0.33299 1.34123,0.51201 0.44561,0.17875 0.8904,0.36587 1.33445,0.56122 0.44341,0.19507 0.88597,0.3984 1.32776,0.6099 0.44118,0.21119 0.88155,0.43055 1.32114,0.658 0.43893,0.2271 0.8771,0.46232 1.31452,0.7055 0.43675,0.24283 0.87272,0.49365 1.30794,0.75236 0.43456,0.25832 0.86838,0.52453 1.30144,0.79855 0.43241,0.2736 0.86406,0.55502 1.29495,0.84408 0.43021,0.28864 0.85975,0.58499 1.28849,0.88887 0.42814,0.30344 0.85553,0.61448 1.28215,0.93294 0.42602,0.31801 0.85125,0.64348 1.27577,0.97629 0.42392,0.33231 0.84707,0.67198 1.26953,1.01882 0.42177,0.34636 0.84288,0.69995 1.26319,1.06058 0.41974,0.36015 0.83874,0.72735 1.25705,1.10152 0.41768,0.3736 0.83464,0.7542 1.25089,1.14162 0.41559,0.38685 0.83051,0.78049 1.24474,1.18084 0.41357,0.39976 0.82647,0.8062 1.23866,1.21918 0.4116,0.4124 0.82248,0.83133 1.23263,1.25666 0.40962,0.42471 0.81848,0.85583 1.22672,1.29319 0.40759,0.43674 0.81453,0.87971 1.22072,1.32877 0.40562,0.44846 0.81055,0.90299 1.21484,1.36346 0.40366,0.45982 0.8067,0.92561 1.20902,1.39717 0.40175,0.47085 0.80282,0.94751 1.20321,1.4298 0.39984,0.48162 0.799,0.96884 1.19748,1.46152 0.39793,0.49201 0.79518,0.98952 1.19178,1.49226 0.39601,0.50202 0.79141,1.0094 1.18615,1.52188 0.39413,0.51176 0.78763,1.02866 1.18048,1.55053 0.3923,0.52109 0.78397,1.04721 1.17498,1.57807 0.39045,0.53012 0.78027,1.06505 1.16945,1.60459 0.38861,0.53876 0.7766,1.08218 1.16397,1.63 0.38682,0.54709 0.77303,1.09862 1.15856,1.6544 0.38506,0.55498 0.76943,1.11426 1.1532,1.67759 0.38325,0.56258 0.76588,1.12921 1.14787,1.69976 0.38151,0.56977 0.76239,1.14342 1.14263,1.72082 0.37973,0.57655 0.75886,1.15686 1.13737,1.74067 0.37799,0.58303 0.75535,1.1696 1.1322,1.75951 0.37628,0.58907 0.75194,1.18152 1.12707,1.77711 0.37454,0.59477 0.74856,1.19273 1.12196,1.79364 0.37291,0.6001 0.74521,1.20316 1.11694,1.80901 0.37124,0.605 0.7419,1.2128 1.11197,1.82323 0.36956,0.60954 0.73856,1.2217 1.10701,1.83627 0.36791,0.61371 0.73528,1.22986 1.1021,1.8482 0.36631,0.61749 0.73209,1.23719 1.09727,1.85892 0.3647,0.62089 0.72887,1.24382 1.09247,1.86855 0.36312,0.62388 0.72567,1.24961 1.0877,1.87695 0.36154,0.6265 0.72253,1.25466 1.08299,1.88426 0.36001,0.62872 0.71945,1.25891 1.07835,1.89034 0.35845,0.63057 0.71636,1.26239 1.07377,1.8953 0.35689,0.63204 0.71325,1.26513 1.06915,1.8991 0.35539,0.63313 0.71023,1.2671 1.0646,1.90176 0.35391,0.6338 0.7073,1.26829 1.06015,1.90325 0.35248,0.6341 0.70439,1.26871 1.05582,1.9036 0.35092,0.63404 0.70139,1.26838 1.05132,1.9028 0.34948,0.63358 0.69854,1.26728 1.04704,1.90088 0.34806,0.63276 0.69564,1.26543 1.04274,1.89783 0.34665,0.63157 0.69278,1.26282 1.03848,1.89365 0.34525,0.62998 0.68997,1.25948 1.03428,1.88834 0.34384,0.62803 0.68721,1.25538 1.03015,1.88195"
       title="sin(x)"
       inkscape:connector-curvature="0" />
  </g>
  <g
     inkscape:groupmode="layer"
     id="g3976"
     inkscape:label="2*sin(x)"
     style="display:none">
    <path
       id="path3978"
       style="fill:none;stroke:#ffffff;stroke-width:16;stroke-linecap:round;stroke-linejoin:round;stroke-miterlimit:4;stroke-opacity:1;stroke-dasharray:none;stroke-dashoffset:128.55140038;marker-start:none;marker-mid:none"
       d="m 172.9209,408.25707 c 1.40545,-2.36808 2.80714,-4.72995 4.20514,-7.08483 1.39432,-2.3487 2.78495,-4.6904 4.17192,-7.02457 1.3833,-2.32797 2.76298,-4.64843 4.13905,-6.96069 1.37248,-2.30618 2.74138,-4.60415 4.10669,-6.89334 1.36172,-2.28319 2.71994,-4.55761 4.07462,-6.82259 1.35114,-2.25908 2.69877,-4.50878 4.04294,-6.74843 1.34069,-2.23388 2.67795,-4.45775 4.01176,-6.67097 1.33033,-2.20755 2.65728,-4.40454 3.98087,-6.59033 1.3201,-2.18021 2.63686,-4.3492 3.95027,-6.50651 1.31003,-2.15174 2.61676,-4.29178 3.92019,-6.41952 1.30009,-2.12234 2.59688,-4.23238 3.8904,-6.3296 1.29022,-2.09189 2.57725,-4.17098 3.86099,-6.23667 1.28052,-2.0605 2.55785,-4.10767 3.83192,-6.14092 1.27089,-2.02813 2.53865,-4.0424 3.80317,-6.04232 1.26143,-1.99485 2.51968,-3.97534 3.77488,-5.94098 1.25197,-1.96067 2.50095,-3.90654 3.74675,-5.83699 1.24274,-1.92562 2.48242,-3.83595 3.71907,-5.73044 1.23359,-1.88978 2.46416,-3.76379 3.69173,-5.62142 1.22451,-1.85302 2.44607,-3.68983 3.66465,-5.50988 1.2156,-1.81557 2.42825,-3.61444 3.63791,-5.39603 1.20678,-1.77732 2.41062,-3.53746 3.61153,-5.27999 1.19803,-1.73829 2.39316,-3.45899 3.58545,-5.16169 1.18938,-1.69856 2.37589,-3.37915 3.55962,-5.04128 1.18086,-1.65816 2.35889,-3.29796 3.53417,-4.91889 1.17237,-1.61706 2.34206,-3.21538 3.50895,-4.79452 1.16405,-1.57537 2.32544,-3.13157 3.48404,-4.66829 1.15584,-1.53304 2.30903,-3.04657 3.45945,-4.54027 1.14776,-1.49013 2.29282,-2.96045 3.43519,-4.41058 1.13966,-1.44666 2.27672,-2.8732 3.41109,-4.27926 1.13176,-1.40267 2.26086,-2.78493 3.3874,-4.14638 1.12385,-1.35826 2.24514,-2.69573 3.36387,-4.01207 1.11614,-1.31331 2.22969,-2.60553 3.34073,-3.87643 1.10841,-1.26788 2.21433,-2.51448 3.31775,-3.73946 1.10085,-1.22212 2.19918,-2.42263 3.29511,-3.60129 1.09335,-1.17593 2.18422,-2.33002 3.27265,-3.46207 1.08597,-1.1294 2.16944,-2.23671 3.25052,-3.32175 1.07863,-1.08249 2.15483,-2.14273 3.22865,-3.18046 1.07136,-1.03536 2.14035,-2.04823 3.20697,-3.03844 1.0642,-0.98789 2.12607,-1.95311 3.18561,-2.89547 1.05712,-0.94018 2.11194,-1.85759 3.16439,-2.75189 1.05012,-0.8923 2.09796,-1.76159 3.14351,-2.6077 1.04319,-0.8442 2.08414,-1.66525 3.12279,-2.46299 1.03635,-0.79593 2.07049,-1.56856 3.10238,-2.31777 1.02959,-0.74757 2.05694,-1.47167 3.08211,-2.17226 1.02289,-0.69903 2.04362,-1.37455 3.06216,-2.02641 1.01625,-0.65048 2.03037,-1.27728 3.04232,-1.88044 1.00975,-0.60177 2.01732,-1.1799 3.02281,-1.73424 1.00325,-0.55314 2.00444,-1.08251 3.00346,-1.58807 0.99687,-0.50447 1.99162,-0.98513 2.98433,-1.44197 0.99056,-0.4558 1.97897,-0.88779 2.96538,-1.29593 0.98431,-0.40721 1.96655,-0.79058 2.94672,-1.15013 0.97809,-0.3587 1.95414,-0.69355 2.9282,-1.00454 0.97196,-0.31035 1.94189,-0.5968 2.90987,-0.85947 0.96586,-0.26203 1.92982,-0.50024 2.89176,-0.71465 0.95989,-0.21397 1.91787,-0.40411 2.87386,-0.57046 0.95398,-0.1658 1.906,-0.3083 2.85608,-0.42688 0.94813,-0.11839 1.89431,-0.2129 2.83863,-0.28388 0.94228,-0.0709 1.88267,-0.11801 2.82122,-0.14178 0.93654,-0.0239 1.87121,-0.0239 2.80405,-2.8e-4 0.93084,0.0235 1.85987,0.0699 2.78706,0.14025 0.92526,0.0696 1.84867,0.16331 2.77025,0.27977 0.91968,0.11626 1.83752,0.25576 2.7536,0.41828 0.91418,0.16214 1.82656,0.34747 2.73714,0.55566 0.9087,0.20779 1.81567,0.43847 2.72087,0.69192 0.90328,0.25304 1.80486,0.52859 2.70466,0.82698 0.898,0.29759 1.79424,0.61795 2.68874,0.96059 0.89269,0.34193 1.78369,0.70632 2.67292,1.09288 0.88746,0.3858 1.77322,0.79378 2.65727,1.22377 0.88228,0.42911 1.76289,0.88023 2.64179,1.35313 0.87714,0.47192 1.75263,0.96564 2.62644,1.48092 0.87202,0.5142 1.74246,1.05001 2.61123,1.60705 0.867,0.55597 1.7324,1.13325 2.59618,1.73158 0.86203,0.59707 1.72245,1.2153 2.58129,1.85427 0.85708,0.63764 1.71262,1.29616 2.56652,1.97514 0.85225,0.67762 1.70286,1.37579 2.55191,2.09416 0.84736,0.71699 1.69318,1.45421 2.53742,2.21138 0.8426,0.75559 1.6836,1.53121 2.52308,2.32641 0.83786,0.79368 1.67413,1.60698 2.5089,2.43958 0.83312,0.83096 1.66472,1.6813 2.49479,2.55063 0.82846,0.86754 1.65542,1.75413 2.48086,2.65941 0.82381,0.90351 1.64617,1.82573 2.46704,2.76623 0.81924,0.93864 1.637,1.89564 2.45331,2.87064 0.81472,0.97308 1.628,1.9642 2.43978,2.97288 0.81022,1.0067 1.61898,2.03109 2.42628,3.07274 0.80577,1.03963 1.61009,2.09651 2.41301,3.17026 0.80131,1.07172 1.6012,2.16027 2.3997,3.26538 0.79699,1.10297 1.59253,2.22249 2.38667,3.35807 0.79261,1.1334 1.58382,2.28295 2.37361,3.44818 0.78836,1.16306 1.57524,2.34177 2.36077,3.53588 0.78407,1.19181 1.56672,2.39896 2.34798,3.62098 0.77984,1.2197 1.55827,2.45433 2.33537,3.70346 0.77556,1.24674 1.54983,2.50807 2.3227,3.78334 0.77147,1.27293 1.54156,2.55996 2.31028,3.86055 0.76734,1.2982 1.53332,2.61005 2.29794,3.93512 0.76324,1.32253 1.52509,2.65834 2.28567,4.00689 0.75915,1.34601 1.51698,2.70485 2.2735,4.07598 0.75514,1.36857 1.50894,2.74948 2.26144,4.14227 0.75113,1.39018 1.50092,2.7923 2.24945,4.20579 0.74714,1.41091 1.493,2.83322 2.23757,4.26653 0.74323,1.43063 1.48511,2.87224 2.22578,4.32435 0.73927,1.44946 1.47732,2.90941 2.21408,4.37939 0.73542,1.4673 1.46954,2.94468 2.20243,4.43156 0.73156,1.48423 1.46187,2.97799 2.19092,4.48085 0.72772,1.50012 1.45424,3.00937 2.17945,4.52719 0.72397,1.5151 1.44665,3.03883 2.1681,4.5707 0.72016,1.52909 1.43909,3.06633 2.15684,4.61128 0.71639,1.54207 1.43161,3.09191 2.14559,4.64883 0.71269,1.55414 1.4242,3.11555 2.13448,4.68357 0.709,1.56524 1.41682,3.13717 2.12342,4.71532 0.70536,1.57533 1.40948,3.15693 2.11245,4.74417 0.70168,1.58446 1.40222,3.17465 2.10154,4.77003 0.69808,1.59259 1.39498,3.19037 2.09068,4.79297 0.69453,1.59974 1.38782,3.20423 2.07998,4.81295 0.69092,1.60592 1.38068,3.21612 2.06927,4.83004 0.68735,1.61108 1.37359,3.22595 2.05862,4.84416 0.68386,1.61533 1.36656,3.23394 2.04809,4.85532 0.68038,1.61858 1.35955,3.23996 2.03762,4.8636 0.67687,1.62085 1.35258,3.24401 2.02718,4.86896 0.67341,1.62217 1.34571,3.24614 2.01682,4.87142 0.66998,1.62252 1.3388,3.24635 2.00652,4.87104 0.66656,1.62184 1.33197,3.24462 1.99626,4.86772 0.66321,1.6203 1.32526,3.24098 1.98619,4.86155 0.65976,1.61775 1.31844,3.23545 1.97599,4.85254 0.65643,1.61432 1.31174,3.22808 1.96598,4.84078 0.65309,1.60992 1.3051,3.21875 1.95597,4.8261 0.64978,1.60461 1.29844,3.2077 1.94601,4.80875 0.64652,1.59835 1.29185,3.19472 1.93616,4.78857 0.64319,1.59118 1.28529,3.17993 1.92633,4.76573 0.63993,1.58312 1.27877,3.16327 1.91654,4.74012 0.6367,1.57412 1.27231,3.14484 1.90682,4.71182 0.63348,1.5643 1.26586,3.12475 1.8972,4.68089 0.63024,1.5536 1.25944,3.10288 1.88755,4.64743 0.62707,1.54194 1.25308,3.07919 1.87797,4.61127 0.6239,1.5295 1.24673,3.05384 1.8685,4.57261 0.62075,1.51621 1.24038,3.02681 1.85898,4.5314 0.61763,1.50206 1.23419,2.99812 1.84964,4.48771 0.61448,1.48712 1.2279,2.96778 1.84027,4.44161 0.61137,1.47138 1.22166,2.93582 1.83095,4.39307 0.60824,1.45485 1.21548,2.90234 1.82164,4.34217 0.6052,1.43747 1.20933,2.86725 1.81245,4.28892 0.60212,1.41939 1.20321,2.83064 1.80329,4.23341 0.59909,1.40054 1.19712,2.79253 1.79414,4.17569 0.59603,1.38087 1.19107,2.75289 1.78507,4.1157 0.59298,1.36057 1.18502,2.71189 1.77601,4.05359 0.59003,1.33949 1.17905,2.66939 1.76704,3.9893 0.58704,1.31781 1.17303,2.62561 1.7581,3.92309 0.58404,1.29537 1.1671,2.58041 1.74913,3.85475 0.58112,1.27232 1.16121,2.5339 1.74031,3.78449 0.57818,1.24862 1.15534,2.48614 1.73151,3.71236 0.57523,1.22419 1.14946,2.43707 1.7227,3.63827 0.57232,1.19923 1.14367,2.38684 1.71399,3.5624 0.56941,1.17371 1.13783,2.33537 1.70528,3.48479 0.56651,1.1476 1.13207,2.2828 1.6966,3.40548 0.5637,1.12088 1.12634,2.22911 1.68805,3.32449 0.5608,1.09365 1.12062,2.17441 1.67942,3.24196 0.55797,1.06588 1.11497,2.11857 1.67096,3.15786 0.55511,1.03756 1.10925,2.06173 1.66242,3.07221 0.55229,1.00885 1.10366,2.00405 1.65399,2.9852 0.54947,0.97965 1.09802,1.94533 1.64557,2.8968 0.54669,0.95002 1.09243,1.88581 1.63722,2.80718 0.54392,0.91985 1.08688,1.82534 1.62887,2.71618 0.54114,0.88941 1.08134,1.7641 1.62061,2.624 0.5384,0.85849 1.07586,1.70212 1.61236,2.53071 0.53564,0.82726 1.07037,1.63945 1.60411,2.43637 0.53296,0.79569 1.06495,1.57609 1.59601,2.341 0.5302,0.76375 1.05949,1.512 1.58784,2.2447 0.5275,0.73147 1.0541,1.44735 1.57973,2.14742 0.52482,0.69899 1.04874,1.38217 1.57172,2.04942 0.52213,0.66622 1.04342,1.31639 1.5637,1.95059 0.51949,0.63314 1.03807,1.2502 1.55571,1.85102 0.51689,0.59993 1.03278,1.18362 1.5478,1.75092 0.51423,0.56646 1.02753,1.11654 1.53991,1.65018 0.51162,0.53274 1.0223,1.04904 1.53204,1.54883 0.50901,0.49895 1.01708,0.98134 1.52426,1.44708 0.50637,0.46502 1.01188,0.91342 1.51648,1.34501 0.50379,0.43096 1.00674,0.84513 1.50873,1.24251 0.50125,0.39677 1.00159,0.77672 1.50106,1.13977 0.49867,0.36251 0.99648,0.70812 1.49336,1.03683 0.49615,0.3282 0.99142,0.63941 1.48579,0.93371 0.49361,0.29385 0.98636,0.57069 1.47818,0.83053 0.49113,0.25946 0.98133,0.50187 1.47071,0.7273 0.4886,0.22508 0.97634,0.4331 1.46318,0.62413 0.4861,0.19078 0.97134,0.36439 1.45574,0.52103 0.48363,0.15657 0.96639,0.29577 1.44829,0.41812 0.4812,0.12213 0.96154,0.2273 1.44095,0.31544 0.47876,0.0878 0.95662,0.15868 1.43363,0.21291 0.47632,0.0539 0.95181,0.091 1.42636,0.11089 0.47387,0.02 0.94688,0.0231 1.41909,0.007 0.47146,-0.0135 0.94209,-0.0446 1.41188,-0.0918 0.46909,-0.0475 0.93732,-0.11176 1.40474,-0.19284 0.46669,-0.0811 0.93256,-0.17867 1.3976,-0.29298 0.46433,-0.11389 0.92786,-0.24509 1.39048,-0.39256 0.46203,-0.14735 0.92319,-0.31114 1.38352,-0.49139 0.45965,-0.18002 0.91851,-0.37661 1.37653,-0.58953 0.45728,-0.21271 0.9138,-0.44163 1.36951,-0.68692 0.45502,-0.24486 0.90923,-0.50602 1.36263,-0.78335 0.45277,-0.27688 0.90468,-0.56993 1.3558,-0.87892 0.45042,-0.30857 0.9001,-0.63318 1.34895,-0.97359 0.44818,-0.33992 0.89554,-0.69573 1.34216,-1.0672 0.44595,-0.37094 0.89108,-0.75758 1.3354,-1.15975 0.44372,-0.40161 0.88664,-0.81873 1.32876,-1.25125 0.44147,-0.43184 0.88217,-0.87913 1.32208,-1.34154 0.43929,-0.46175 0.87777,-0.93871 1.3155,-1.43065 0.43706,-0.49122 0.87339,-0.99744 1.30894,-1.51849 0.43492,-0.52026 0.86905,-1.05539 1.30242,-1.60505 0.43271,-0.54887 0.8647,-1.11241 1.29593,-1.69026 0.4306,-0.57701 0.86045,-1.16846 1.28954,-1.77403 0.42845,-0.60474 0.85616,-1.22362 1.28312,-1.85648 0.42636,-0.63191 0.85195,-1.27782 1.27684,-1.93736 0.4242,-0.65862 0.84773,-1.33097 1.27048,-2.01676 0.42215,-0.68482 0.84357,-1.38309 1.2643,-2.09461 0.42009,-0.71043 0.83944,-1.43415 1.2581,-2.17085 0.41799,-0.73561 0.83531,-1.48415 1.25191,-2.24541 0.41596,-0.76017 0.83124,-1.53307 1.24581,-2.31837 0.41396,-0.78418 0.82722,-1.58081 1.23974,-2.38958 0.41197,-0.80763 0.82319,-1.62743 1.23377,-2.4591 0.40995,-0.83046 0.81923,-1.67282 1.22778,-2.52675 0.40795,-0.85276 0.81523,-1.71705 1.22184,-2.59269 0.40599,-0.87435 0.81135,-1.76009 1.21598,-2.65677 0.40408,-0.89537 0.80746,-1.80176 1.21014,-2.71886 0.40216,-0.91581 0.80363,-1.84232 1.20442,-2.77918 0.4002,-0.93558 0.79975,-1.88161 1.19862,-2.8376 0.3983,-0.95463 0.79598,-1.91946 1.19299,-2.89396 0.3964,-0.97315 0.79219,-1.95604 1.18731,-2.94841 0.39455,-0.99089 0.78848,-1.99132 1.18175,-3.00081 0.3927,-1.00805 0.78474,-2.02525 1.17618,-3.05121 0.39087,-1.02451 0.78109,-2.05784 1.17068,-3.09956 0.38906,-1.04031 0.77748,-2.08907 1.16524,-3.14591 0.38729,-1.05534 0.77386,-2.11885 1.15986,-3.19006 0.38545,-1.06977 0.7703,-2.14726 1.1545,-3.23219 0.38369,-1.08343 0.76677,-2.17428 1.14919,-3.27222 0.38192,-1.09634 0.76324,-2.19984 1.14393,-3.31001 0.38018,-1.10865 0.75973,-2.22404 1.13874,-3.34579 0.37845,-1.12018 0.75628,-2.24673 1.13356,-3.37929 0.3767,-1.131 0.75287,-2.26804 1.12843,-3.4107 0.37505,-1.14113 0.74951,-2.28788 1.1234,-3.43995 0.37336,-1.15045 0.74615,-2.30621 1.11837,-3.46698 0.37168,-1.15907 0.74282,-2.32314 1.11338,-3.49176 0.37003,-1.16703 0.73954,-2.33866 1.10846,-3.51445 0.36842,-1.17421 0.7363,-2.35261 1.10359,-3.53489 0.3668,-1.18064 0.73308,-2.36518 1.09876,-3.55313 0.36522,-1.18634 0.72987,-2.3762 1.09398,-3.56913 0.36362,-1.19133 0.7267,-2.38581 1.08925,-3.58303 0.36208,-1.19555 0.72359,-2.39391 1.08456,-3.5946 0.36052,-1.19907 0.72047,-2.40051 1.07996,-3.60402 0.35894,-1.20184 0.71736,-2.40572 1.0753,-3.61127 0.35744,-1.20391 0.71435,-2.40944 1.07075,-3.61629 0.35595,-1.20521 0.71137,-2.41173 1.06627,-3.61914 0.35449,-1.20579 0.70844,-2.41251 1.06189,-3.6198 0.35295,-1.20567 0.70543,-2.41189 1.05739,-3.6183 0.3515,-1.20479 0.70256,-2.40979 1.05307,-3.61462 0.35006,-1.20323 0.69965,-2.40629 1.04877,-3.60884 0.34864,-1.20096 0.69677,-2.40135 1.04444,-3.60089 0.34726,-1.19793 0.69396,-2.39498 1.04026,-3.59079 0.34582,-1.19423 0.69118,-2.38719 1.03611,-3.57863"
       title="sin(x)"
       inkscape:connector-curvature="0" />
  </g>
  <g
     style="display:inline"
     inkscape:label="sin(x)"
     id="g3984"
     inkscape:groupmode="layer">
    <path
       inkscape:connector-curvature="0"
       title="sin(x)"
       d="m 169.89375,409.79872 c 1.42113,-1.23262 2.83846,-2.462 4.25207,-3.68775 1.40988,-1.22253 2.81603,-2.44141 4.21849,-3.65638 1.39873,-1.21174 2.79382,-2.41957 4.18524,-3.62313 1.3878,-1.2004 2.77198,-2.39653 4.15253,-3.58808 1.37692,-1.18843 2.7503,-2.3723 4.1201,-3.55125 1.36622,-1.17588 2.7289,-2.34688 4.08807,-3.51265 1.35565,-1.16276 2.70784,-2.32032 4.05653,-3.47233 1.34519,-1.14906 2.68695,-2.29262 4.02531,-3.43036 1.33484,-1.13482 2.66629,-2.26381 3.99436,-3.38672 1.32465,-1.12001 2.64597,-2.23393 3.96395,-3.34145 1.3146,-1.1047 2.62586,-2.20301 3.93382,-3.29464 1.30462,-1.08886 2.60602,-2.17105 3.90409,-3.24627 1.29481,-1.07252 2.58639,-2.1381 3.87468,-3.19643 1.28508,-1.05567 2.56699,-2.10413 3.84563,-3.14511 1.27551,-1.03835 2.5478,-2.06922 3.81701,-3.09236 1.26595,-1.02056 2.52887,-2.03341 3.78857,-3.03823 1.25662,-1.00232 2.51013,-1.99667 3.76059,-2.98278 1.24736,-0.98365 2.49166,-1.9591 3.73294,-2.92602 1.23817,-0.96452 2.47337,-1.92061 3.70554,-2.86797 1.22918,-0.94503 2.45536,-1.88136 3.67852,-2.8087 1.22025,-0.92512 2.43753,-1.8413 3.65184,-2.74831 1.21141,-0.9048 2.41988,-1.80045 3.62547,-2.68673 1.20266,-0.88412 2.40241,-1.75889 3.59936,-2.62405 1.19404,-0.8631 2.38521,-1.71664 3.57362,-2.56035 1.18545,-0.8417 2.36819,-1.67365 3.54811,-2.49561 1.17704,-0.82001 2.35139,-1.63003 3.52293,-2.42991 1.16874,-0.79797 2.3348,-1.58578 3.49806,-2.36327 1.16057,-0.77564 2.31841,-1.54096 3.47353,-2.29577 1.15238,-0.75301 2.30213,-1.49554 3.44917,-2.22741 1.14439,-0.73011 2.28609,-1.4496 3.42521,-2.15825 1.13639,-0.70699 2.27019,-1.40316 3.40141,-2.08834 1.1286,-0.68359 2.25458,-1.35621 3.37802,-2.01773 1.12078,-0.65995 2.23904,-1.30882 3.35479,-1.94644 1.11313,-0.63613 2.22372,-1.26101 3.33188,-1.87452 1.10555,-0.61209 2.2086,-1.21281 3.30918,-1.80205 1.09809,-0.58787 2.19366,-1.16424 3.2868,-1.72902 1.09067,-0.56345 2.17889,-1.11532 3.26469,-1.65547 1.08332,-0.53892 2.16424,-1.06613 3.24277,-1.58155 1.07608,-0.51421 2.1498,-1.01662 3.22116,-1.50713 1.06892,-0.48938 2.13551,-0.9669 3.19971,-1.4324 1.06185,-0.46445 2.12138,-0.91693 3.1786,-1.35734 1.05484,-0.43942 2.1074,-0.86679 3.15765,-1.28202 1.04791,-0.41429 2.09359,-0.81646 3.13701,-1.20643 1.04108,-0.38912 2.07989,-0.76602 3.11651,-1.13069 1.0343,-0.36386 2.06643,-0.71547 3.09633,-1.05478 1.0276,-0.33858 2.05304,-0.66484 3.07629,-0.97879 1.02101,-0.31323 2.03984,-0.61415 3.05655,-0.9027 1.01444,-0.28791 2.0268,-0.56346 3.03698,-0.82661 1.00799,-0.26258 2.01385,-0.51277 3.01764,-0.75056 1.00162,-0.23725 2.00106,-0.46211 2.99848,-0.67455 0.99529,-0.21196 1.98849,-0.41151 2.97961,-0.59866 0.98901,-0.18671 1.97595,-0.361 2.96088,-0.52288 0.98281,-0.16154 1.96357,-0.31064 2.94235,-0.44736 0.97665,-0.13639 1.95136,-0.26038 2.92404,-0.37199 0.9706,-0.11137 1.93927,-0.21034 2.90594,-0.29693 0.96462,-0.0863 1.92727,-0.16047 2.88796,-0.2222 0.95871,-0.0616 1.91545,-0.11081 2.87031,-0.14776 0.95279,-0.0369 1.90368,-0.0614 2.85271,-0.0738 0.94699,-0.0124 1.8921,-0.0124 2.83534,-1.4e-4 0.94123,0.0122 1.88063,0.0364 2.81818,0.073 0.93558,0.0362 1.8693,0.085 2.80117,0.14562 0.92994,0.0605 1.85802,0.13313 2.78433,0.21772 0.92439,0.0844 1.84695,0.18087 2.76769,0.28923 0.91885,0.10816 1.83594,0.22823 2.75124,0.36016 0.91337,0.13171 1.82501,0.27513 2.73485,0.43045 0.90802,0.1549 1.81427,0.32165 2.71875,0.5 0.90266,0.17798 1.8036,0.36765 2.70276,0.56886 0.89737,0.20081 1.79301,0.41317 2.68693,0.63699 0.89212,0.22335 1.78256,0.45817 2.67127,0.70432 0.88693,0.24564 1.7722,0.50263 2.65576,0.77084 0.88176,0.26765 1.76191,0.54654 2.64038,0.83649 0.87667,0.28939 1.75173,0.58987 2.62515,0.90131 0.87166,0.31078 1.74168,0.63258 2.61011,0.96517 0.86665,0.3319 1.73173,0.67467 2.59516,1.02809 0.86176,0.35271 1.72187,0.71612 2.5804,1.09004 0.85682,0.3732 1.71208,0.75693 2.56574,1.15105 0.852,0.3933 1.70239,0.79702 2.55124,1.21093 0.84721,0.41312 1.69281,0.83645 2.53691,1.26983 0.84242,0.43253 1.6833,0.87514 2.52263,1.32764 0.83771,0.45157 1.6739,0.91305 2.50855,1.38426 0.83301,0.47029 1.66455,0.95032 2.49458,1.43986 0.82839,0.48857 1.65527,0.98671 2.4807,1.49421 0.82381,0.5065 1.64616,1.02239 2.467,1.54742 0.81927,0.524 1.63706,1.05721 2.45337,1.5994 0.81476,0.54115 1.62806,1.09126 2.43994,1.65017 0.81025,0.55784 1.61907,1.12445 2.42648,1.69967 0.80589,0.57411 1.61031,1.15684 2.41331,1.74792 0.80146,0.58995 1.6015,1.18831 2.40011,1.79483 0.79716,0.60538 1.59282,1.21892 2.38712,1.84047 0.79282,0.62035 1.58421,1.24869 2.37419,1.88477 0.78854,0.63487 1.57566,1.27751 2.36143,1.9277 0.78422,0.64895 1.56713,1.30548 2.34863,1.96928 0.78008,0.66258 1.55877,1.33249 2.33607,2.00947 0.7759,0.67573 1.55043,1.35856 2.32358,2.04828 0.77176,0.68839 1.54212,1.3837 2.31119,2.08564 0.76762,0.70062 1.53391,1.40791 2.29888,2.1216 0.76356,0.71236 1.52577,1.43115 2.28667,2.15611 0.75951,0.72361 1.51767,1.45343 2.27457,2.18917 0.75547,0.7344 1.50965,1.47473 2.26254,2.22079 0.75152,0.74466 1.50169,1.49504 2.25063,2.25088 0.74751,0.75446 1.4938,1.51439 2.23878,2.27953 0.74363,0.76375 1.48595,1.53275 2.22702,2.30669 0.73972,0.77256 1.47819,1.55008 2.21538,2.33234 0.73583,0.78083 1.47046,1.56642 2.20377,2.35647 0.73205,0.78863 1.46279,1.58175 2.1923,2.37911 0.72819,0.79591 1.45515,1.59606 2.18092,2.40023 0.72438,0.80267 1.44759,1.60938 2.16953,2.41978 0.72065,0.80895 1.44009,1.62168 2.15831,2.43786 0.71691,0.81473 1.43263,1.63294 2.14712,2.45439 0.71323,0.81998 1.42521,1.64322 2.13603,2.4694 0.70951,0.82473 1.41787,1.65245 2.12499,2.48287 0.70587,0.82896 1.41055,1.66063 2.11402,2.4948 0.70228,0.83269 1.40331,1.66785 2.10319,2.50521 0.69864,0.8359 1.39609,1.67403 2.09237,2.5141 0.69503,0.83859 1.38892,1.67915 2.0816,2.52145 0.6915,0.8408 1.38181,1.68331 2.07095,2.52726 0.68797,0.84249 1.37472,1.68644 2.06036,2.53157 0.68443,0.84367 1.36768,1.68855 2.04981,2.53436 0.68093,0.84436 1.36073,1.68966 2.03933,2.53564 0.67746,0.84454 1.35375,1.68977 2.02892,2.53544 0.674,0.84419 1.34684,1.68887 2.01854,2.53371 0.67061,0.84339 1.34005,1.68698 2.00836,2.53051 0.66712,0.84206 1.33316,1.68409 1.99805,2.52581 0.66376,0.84027 1.32638,1.68026 1.98792,2.51969 0.66038,0.83798 1.31966,1.6754 1.9778,2.51205 0.65703,0.83522 1.31294,1.66965 1.96774,2.50302 0.65373,0.83196 1.30626,1.66289 1.95777,2.49251 0.65037,0.82824 1.29963,1.6552 1.94782,2.48063 0.64708,0.82404 1.29305,1.64653 1.93794,2.4673 0.6438,0.81935 1.28651,1.63693 1.9281,2.45256 0.64056,0.81424 1.27999,1.62648 1.91837,2.43647 0.63728,0.80867 1.2735,1.61509 1.90863,2.41905 0.63406,0.8026 1.26706,1.60276 1.89893,2.40023 0.63086,0.79612 1.26065,1.58956 1.88936,2.3801 0.62767,0.78921 1.25421,1.5755 1.87972,2.35866 0.62452,0.78184 1.24796,1.56056 1.87029,2.33591 0.62134,0.77407 1.2416,1.54477 1.8608,2.31192 0.6182,0.76587 1.2353,1.52813 1.85139,2.28665 0.61503,0.75727 1.22905,1.51071 1.84198,2.26016 0.61195,0.74822 1.22283,1.49244 1.83268,2.23244 0.60884,0.73881 1.21664,1.47339 1.82342,2.20355 0.60577,0.729 1.21048,1.45355 1.81416,2.1735 0.60268,0.71876 1.20436,1.43292 1.805,2.14228 0.5996,0.70819 1.19824,1.41157 1.79583,2.10995 0.59661,0.69722 1.19221,1.38945 1.78676,2.07648 0.5936,0.68594 1.18613,1.36667 1.77772,2.04202 0.59057,0.67426 1.18013,1.34314 1.76866,2.00645 0.58761,0.66226 1.17417,1.31893 1.75973,1.96988 0.58464,0.64992 1.16824,1.29407 1.75084,1.93233 0.58165,0.63721 1.16229,1.26853 1.74193,1.89377 0.57871,0.62422 1.15644,1.24238 1.73312,1.85428 0.57576,0.61093 1.15053,1.21559 1.72431,1.81388 0.57284,0.59734 1.14471,1.18823 1.71555,1.7726 0.56998,0.58343 1.13891,1.16028 1.70688,1.73044 0.56706,0.56926 1.13313,1.13181 1.69816,1.68748 0.56421,0.55481 1.12743,1.10275 1.68962,1.64371 0.5613,0.54007 1.12163,1.07316 1.68097,1.59913 0.55846,0.52512 1.11598,1.04313 1.67245,1.55384 0.55561,0.50992 1.11028,1.01257 1.66394,1.50782 0.5528,0.4945 1.10463,0.98159 1.6555,1.46117 0.54999,0.4788 1.09901,0.95012 1.64705,1.41381 0.54718,0.46295 1.09341,0.91824 1.6387,1.36583 0.54441,0.44686 1.08787,0.88598 1.63036,1.31727 0.54161,0.4306 1.08231,0.85335 1.62202,1.26816 0.5389,0.41417 1.07683,0.82038 1.61382,1.21852 0.53611,0.39755 1.07131,0.78702 1.60555,1.1684 0.5334,0.38074 1.06587,0.75337 1.59737,1.11776 0.53068,0.36384 1.06045,0.71944 1.58926,1.06675 0.52796,0.34678 1.05507,0.6852 1.58116,1.01531 0.52529,0.32956 1.04966,0.65075 1.57307,0.96348 0.52266,0.31227 1.04431,0.61609 1.56508,0.91138 0.51997,0.29485 1.03899,0.58117 1.55709,0.85894 0.51733,0.2773 1.03372,0.54604 1.54915,0.80619 0.51468,0.25971 1.02843,0.5108 1.54127,0.75322 0.51202,0.24205 1.02318,0.47545 1.5334,0.7001 0.50942,0.22432 1.01798,0.4399 1.52558,0.64674 0.50684,0.20653 1.01276,0.40429 1.51781,0.59327 0.50423,0.18869 1.0076,0.36858 1.51003,0.53968 0.50168,0.17083 1.00248,0.33282 1.50237,0.48601 0.49912,0.15295 0.99737,0.29705 1.49469,0.4323 0.49661,0.13505 0.99228,0.26123 1.48712,0.37857 0.49405,0.11716 0.98724,0.22544 1.47951,0.32487 0.49152,0.0993 0.98218,0.18967 1.47199,0.2712 0.48903,0.0815 0.97717,0.15396 1.46446,0.21764 0.48657,0.0636 0.97226,0.11831 1.45703,0.16419 0.48411,0.0457 0.96729,0.0826 1.44963,0.11082 0.48163,0.0281 0.96243,0.0474 1.44228,0.0577 0.47916,0.0104 0.95745,0.012 1.43493,0.004 0.47672,-0.007 0.95261,-0.0232 1.42764,-0.0478 0.47433,-0.0247 0.94778,-0.0582 1.42042,-0.10038 0.4719,-0.0422 0.94297,-0.093 1.4132,-0.1525 0.46951,-0.0593 0.93821,-0.12757 1.406,-0.20433 0.46718,-0.0767 0.93349,-0.16196 1.39896,-0.25578 0.46478,-0.0937 0.92877,-0.19603 1.39189,-0.30686 0.46239,-0.11071 0.92401,-0.22987 1.3848,-0.35755 0.4601,-0.12745 0.91938,-0.26339 1.37784,-0.40774 0.45782,-0.14412 0.91478,-0.29666 1.37093,-0.45749 0.45546,-0.16062 0.91015,-0.32958 1.36401,-0.50677 0.45318,-0.17693 0.90554,-0.36214 1.35714,-0.55549 0.45093,-0.19308 0.90102,-0.39433 1.35031,-0.60367 0.44867,-0.20904 0.89653,-0.42616 1.34359,-0.65129 0.44639,-0.22478 0.89201,-0.4576 1.33684,-0.69829 0.44419,-0.24035 0.88757,-0.48861 1.33018,-0.74467 0.44194,-0.25569 0.88314,-0.51918 1.32355,-0.7904 0.43977,-0.2708 0.87875,-0.54934 1.31696,-0.83545 0.43753,-0.28569 0.87435,-0.57902 1.31039,-0.8798 0.43541,-0.30034 0.87006,-0.6082 1.30393,-0.92341 0.43324,-0.31477 0.86572,-0.63691 1.29745,-0.96632 0.43112,-0.32892 0.86146,-0.66512 1.29109,-1.00842 0.42893,-0.34282 0.85719,-0.69279 1.28466,-1.04975 0.42687,-0.35646 0.85299,-0.71992 1.27841,-1.09027 0.42478,-0.36979 0.84881,-0.7465 1.27214,-1.12996 0.42266,-0.38289 0.84464,-0.77252 1.26589,-1.16877 0.4206,-0.39568 0.84052,-0.79798 1.25971,-1.20674 0.41858,-0.40818 0.83645,-0.82283 1.25358,-1.24381 0.41657,-0.42038 0.83238,-0.8471 1.24755,-1.27999 0.41452,-0.43227 0.82837,-0.87073 1.24147,-1.31521 0.41251,-0.44387 0.82433,-0.89375 1.23548,-1.34953 0.41053,-0.45511 0.82041,-0.91615 1.22956,-1.38289 0.40858,-0.46605 0.81647,-0.93784 1.22365,-1.4152 0.40665,-0.47669 0.81259,-0.95895 1.21785,-1.4466 0.40467,-0.48698 0.80868,-0.9794 1.21201,-1.47701 0.40274,-0.4969 0.80486,-0.9991 1.20631,-1.50634 0.40082,-0.50654 0.80102,-1.01815 1.20055,-1.53469 0.39896,-0.51577 0.79728,-1.03651 1.19494,-1.56196 0.39709,-0.52471 0.79351,-1.05417 1.18931,-1.5882 0.39523,-0.53327 0.78981,-1.07113 1.18375,-1.61336 0.3934,-0.5415 0.78616,-1.08739 1.17825,-1.63749 0.39161,-0.54932 0.7825,-1.10289 1.17281,-1.66047 0.38975,-0.55683 0.77889,-1.11768 1.16737,-1.6824 0.38799,-0.56394 0.77533,-1.13174 1.16203,-1.70323 0.38618,-0.57066 0.77175,-1.14505 1.15669,-1.72291 0.38443,-0.57706 0.76821,-1.15764 1.15145,-1.74153 0.38268,-0.58306 0.76473,-1.16945 1.14621,-1.75896 0.38091,-0.5887 0.76128,-1.18055 1.14103,-1.77532 0.37924,-0.59397 0.75788,-1.19087 1.13594,-1.79054 0.37753,-0.59882 0.75448,-1.20041 1.13085,-1.80461 0.37583,-0.60331 0.75111,-1.20922 1.12581,-1.81751 0.37416,-0.60745 0.74779,-1.2173 1.12083,-1.82932 0.37254,-0.61119 0.74452,-1.22456 1.11591,-1.83995 0.37089,-0.61454 0.74126,-1.23111 1.11103,-1.84945 0.36929,-0.61751 0.73801,-1.23685 1.10619,-1.85779 0.36768,-0.6201 0.73481,-1.24184 1.1014,-1.86501 0.36612,-0.6223 0.73167,-1.24606 1.09667,-1.87104 0.36454,-0.62413 0.72851,-1.2495 1.09201,-1.87594 0.36295,-0.62557 0.72537,-1.25221 1.08731,-1.87971 0.36143,-0.62666 0.72232,-1.25415 1.0827,-1.88233 0.35993,-0.62733 0.71931,-1.25534 1.07817,-1.88381 0.35845,-0.62763 0.71634,-1.25575 1.07375,-1.88416 0.35688,-0.62757 0.7133,-1.25542 1.06919,-1.88337 0.35542,-0.62711 0.7104,-1.25433 1.06482,-1.88146 0.35397,-0.6263 0.70746,-1.25251 1.06047,-1.87845 0.35254,-0.62512 0.70456,-1.24993 1.05611,-1.87431 0.35113,-0.62354 0.7017,-1.24662 1.05186,-1.86906 0.34969,-0.62161 0.6989,-1.24256 1.04767,-1.86272"
       style="fill:none;stroke:#ffffff;stroke-width:16;stroke-linecap:round;stroke-linejoin:round;stroke-miterlimit:4;stroke-opacity:1;stroke-dasharray:none;stroke-dashoffset:128.55140038;marker-start:none;marker-mid:none"
       id="path3986" />
  </g>
</svg>
