<?xml version="1.0" encoding="UTF-8" standalone="no"?>
<!-- Created with Inkscape (http://www.inkscape.org/) -->

<svg
   xmlns:dc="http://purl.org/dc/elements/1.1/"
   xmlns:cc="http://creativecommons.org/ns#"
   xmlns:rdf="http://www.w3.org/1999/02/22-rdf-syntax-ns#"
   xmlns:svg="http://www.w3.org/2000/svg"
   xmlns="http://www.w3.org/2000/svg"
   xmlns:sodipodi="http://sodipodi.sourceforge.net/DTD/sodipodi-0.dtd"
   xmlns:inkscape="http://www.inkscape.org/namespaces/inkscape"
   sodipodi:docname="2012_flat.svg"
   inkscape:version="0.48.3.1 r9886"
   version="1.1"
   id="svg3797"
   height="256"
   width="256">
  <sodipodi:namedview
     id="base"
     pagecolor="#ffffff"
     bordercolor="#666666"
     borderopacity="1.0"
     inkscape:pageopacity="0.0"
     inkscape:pageshadow="2"
     inkscape:zoom="0.70710678"
     inkscape:cx="271.75975"
     inkscape:cy="113.17117"
     inkscape:current-layer="g27052"
     showgrid="false"
     inkscape:document-units="px"
     inkscape:grid-bbox="true"
     inkscape:window-width="1918"
     inkscape:window-height="1062"
     inkscape:window-x="0"
     inkscape:window-y="16"
     inkscape:window-maximized="0"
     showguides="false"
     inkscape:guide-bbox="true">
    <sodipodi:guide
       orientation="0,1"
       position="128,128"
       id="guide2990" />
    <sodipodi:guide
       orientation="1,0"
       position="128,128"
       id="guide2992" />
    <inkscape:grid
       type="xygrid"
       id="grid5146"
       empspacing="5"
       visible="true"
       enabled="true"
       snapvisiblegridlinesonly="true" />
  </sodipodi:namedview>
  <defs
     id="defs3799" />
  <metadata
     id="metadata3802">
    <rdf:RDF>
      <cc:Work
         rdf:about="">
        <dc:format>image/svg+xml</dc:format>
        <dc:type
           rdf:resource="http://purl.org/dc/dcmitype/StillImage" />
        <dc:title />
      </cc:Work>
    </rdf:RDF>
  </metadata>
  <g
     id="layer1"
     inkscape:label="Layer 1"
     inkscape:groupmode="layer"
     transform="translate(0,192)"
     style="display:inline">
    <rect
       style="fill:#000000"
       id="rect3203"
       width="256"
       height="256"
       x="0"
       y="-192" />
  </g>
  <g
     inkscape:groupmode="layer"
     id="layer3"
     inkscape:label="back" />
  <g
     style="display:inline"
     inkscape:label="Sine (lo)"
     id="g27052"
     inkscape:groupmode="layer">
    <path
       inkscape:connector-curvature="0"
       id="path27054"
       title="sin(x)"
       d="m 23.672,132.55873 c 0.272752,0.45532 0.545505,0.91069 0.818257,1.36591 0.272754,0.45523 0.545507,0.9103 0.818258,1.3651 0.272754,0.45481 0.545508,0.90931 0.818261,1.36345 0.272753,0.45412 0.545505,0.90782 0.818258,1.36094 0.272753,0.45316 0.545505,0.90576 0.818257,1.35765 0.272754,0.45192 0.545506,0.90315 0.81826,1.35353 0.272754,0.45039 0.545506,0.89994 0.81826,1.34855 0.272751,0.44859 0.545506,0.89623 0.818257,1.34279 0.272751,0.44652 0.545506,0.89196 0.818259,1.33617 0.272752,0.44422 0.545506,0.88719 0.818259,1.32878 0.272752,0.4416 0.545505,0.88182 0.818257,1.32056 0.272753,0.43876 0.545505,0.87597 0.818259,1.31158 0.272753,0.43557 0.545505,0.86955 0.81826,1.30175 0.272752,0.4322 0.545504,0.86262 0.818258,1.29114 0.272751,0.42854 0.545504,0.85517 0.818259,1.27979 0.272751,0.42464 0.545503,0.84717 0.818258,1.2676 0.272752,0.42043 0.545505,0.83869 0.818258,1.25468 0.272752,0.41601 0.545505,0.82971 0.818259,1.24103 0.272752,0.41129 0.545505,0.82017 0.818259,1.22651 0.272751,0.40639 0.545505,0.81021 0.818258,1.21138 0.272752,0.4012 0.545505,0.79969 0.818259,1.19547 0.272752,0.39572 0.545504,0.78868 0.818258,1.17878 0.272752,0.39008 0.545504,0.77724 0.818258,1.16143 0.272754,0.38414 0.545505,0.76531 0.81826,1.14336 0.272752,0.378 0.545504,0.75294 0.818259,1.12457 0.272751,0.37167 0.545504,0.74007 0.818257,1.10517 0.272753,0.36504 0.545506,0.72676 0.818259,1.08501 0.272753,0.35824 0.545505,0.71303 0.818259,1.06425 0.272751,0.35123 0.545504,0.69887 0.818257,1.04284 0.272753,0.34398 0.545505,0.68425 0.818259,1.02077 0.272754,0.3365 0.545506,0.66923 0.81826,0.9981 0.272753,0.32885 0.545504,0.65382 0.818257,0.97481 0.272752,0.321 0.545505,0.638 0.818259,0.95095 0.272752,0.31294 0.545505,0.62179 0.818258,0.92649 0.272752,0.30469 0.545505,0.60521 0.818258,0.90148 0.272753,0.29626 0.545507,0.58826 0.818259,0.87592 0.272752,0.28766 0.545506,0.57095 0.81826,0.84983 0.272751,0.27887 0.545505,0.5533 0.818256,0.82322 0.272755,0.26992 0.545507,0.53531 0.818259,0.79611 0.272753,0.26081 0.545505,0.51699 0.81826,0.76852 0.272752,0.25153 0.545505,0.49837 0.818257,0.74047 0.272754,0.2421 0.545507,0.47943 0.81826,0.71195 0.272752,0.23253 0.545505,0.46021 0.818258,0.68302 0.272752,0.22281 0.545504,0.44071 0.818259,0.65366 0.272752,0.21296 0.545505,0.42095 0.818258,0.62392 0.272752,0.20297 0.545507,0.40091 0.818257,0.59378 0.272753,0.19287 0.545506,0.38065 0.818259,0.5633 0.272754,0.18265 0.545506,0.36014 0.818259,0.53246 0.272754,0.17231 0.545508,0.33942 0.818258,0.50131 0.272754,0.16187 0.545507,0.31849 0.818257,0.46984 0.272755,0.15135 0.545507,0.29738 0.81826,0.4381 0.272754,0.14072 0.545507,0.27609 0.818259,0.40609 0.272753,0.13001 0.545506,0.25462 0.818258,0.37384 0.272754,0.11922 0.545507,0.23299 0.818259,0.34135 0.272754,0.10835 0.545507,0.21123 0.818261,0.30865 0.272751,0.0974 0.545503,0.18935 0.818255,0.27578 0.272754,0.0864 0.545508,0.16734 0.818258,0.24273 0.272755,0.0754 0.545509,0.14524 0.818261,0.20954 0.272753,0.0643 0.545505,0.12303 0.818257,0.17622 0.272755,0.0532 0.545506,0.10076 0.818258,0.14279 0.272755,0.042 0.545508,0.0784 0.818261,0.10926 0.272753,0.0308 0.545504,0.056 0.818257,0.0757 0.272754,0.0196 0.545505,0.0336 0.818258,0.0421 0.272754,0.008 0.545506,0.0112 0.81826,0.008 0.272753,-0.003 0.545505,-0.0112 0.818259,-0.0252 0.272753,-0.014 0.545504,-0.0336 0.818256,-0.0589 0.272755,-0.0252 0.545507,-0.0561 0.81826,-0.0925 0.272754,-0.0364 0.545505,-0.0784 0.818259,-0.12605 0.272752,-0.0476 0.545504,-0.10078 0.818256,-0.15952 0.272756,-0.0587 0.545508,-0.12304 0.818261,-0.19289 0.272752,-0.0698 0.545504,-0.14524 0.81826,-0.22615 0.272753,-0.0809 0.545503,-0.16736 0.818257,-0.25928 0.272754,-0.0919 0.545505,-0.18936 0.818259,-0.29224 0.272753,-0.1029 0.545504,-0.21124 0.818258,-0.32503 0.272753,-0.11377 0.545505,-0.23301 0.818258,-0.35761 0.272754,-0.12462 0.545507,-0.25463 0.81826,-0.39 0.272752,-0.13536 0.545504,-0.27609 0.818258,-0.42213 0.272754,-0.14603 0.545504,-0.29739 0.818258,-0.454 0.272754,-0.15662 0.545506,-0.31852 0.818259,-0.48562 0.272753,-0.1671 0.545504,-0.33943 0.818259,-0.51692 0.272752,-0.17749 0.545503,-0.36015 0.818257,-0.54792 0.272753,-0.18776 0.545507,-0.38065 0.818261,-0.57858 0.272752,-0.19793 0.545503,-0.40092 0.818258,-0.60889 0.272752,-0.20798 0.545504,-0.42095 0.818257,-0.63884 0.272753,-0.21789 0.545508,-0.44072 0.818262,-0.66839 0.272748,-0.22768 0.545506,-0.46022 0.818254,-0.69755 0.272757,-0.23731 0.545505,-0.47944 0.818263,-0.72626 0.272747,-0.24682 0.545505,-0.49837 0.818254,-0.75455 0.272756,-0.25617 0.545505,-0.517 0.818263,-0.78238 0.272747,-0.26537 0.545505,-0.53531 0.818253,-0.80972 0.272757,-0.27442 0.545507,-0.55331 0.818263,-0.83659 0.272745,-0.28328 0.545501,-0.57097 0.818257,-0.86294 0.272755,-0.29198 0.545501,-0.58827 0.818257,-0.88877 0.272758,-0.3005 0.545508,-0.60522 0.818258,-0.91406 0.27275,-0.30883 0.54551,-0.6218 0.81826,-0.93879 0.27275,-0.31698 0.54551,-0.63801 0.81826,-0.96295 0.27274,-0.32494 0.5455,-0.65384 0.81826,-0.98654 0.27274,-0.3327 0.5455,-0.66923 0.81825,-1.00951 0.27276,-0.34027 0.54552,-0.68425 0.81825,-1.03187 0.27276,-0.34764 0.54552,-0.69888 0.81828,-1.05363 0.27275,-0.35476 0.5455,-0.71303 0.81827,-1.07471 0.27272,-0.3617 0.5455,-0.72678 0.81825,-1.09517 0.27273,-0.36839 0.5455,-0.74008 0.81825,-1.11495 0.27276,-0.37489 0.5455,-0.75295 0.81825,-1.13408 0.27276,-0.38113 0.54553,-0.76532 0.81827,-1.15247 0.27274,-0.38716 0.54552,-0.77728 0.81825,-1.17021 0.27276,-0.39292 0.54552,-0.78872 0.81827,-1.18721 0.27275,-0.39846 0.5455,-0.79969 0.81826,-1.2035 0.27274,-0.40377 0.54549,-0.81015 0.81826,-1.21902 0.27275,-0.40886 0.54549,-0.82022 0.81825,-1.23388 0.27275,-0.41367 0.54551,-0.82971 0.81827,-1.24792 0.27274,-0.41823 0.54549,-0.83872 0.81824,-1.26127 0.27275,-0.42255 0.54552,-0.84719 0.81828,-1.27379 0.27274,-0.42659 0.54549,-0.85516 0.81825,-1.28556 0.27274,-0.43039 0.5455,-0.8626 0.81825,-1.29655 0.27275,-0.43395 0.54552,-0.86954 0.81825,-1.30675 0.27277,-0.43719 0.54552,-0.87597 0.81827,-1.31615 0.27276,-0.44023 0.54551,-0.88186 0.81826,-1.3248 0.27274,-0.44294 0.5455,-0.88716 0.81827,-1.33258 0.27274,-0.4454 0.54549,-0.89199 0.81825,-1.33957 0.27274,-0.44762 0.54549,-0.89625 0.81826,-1.34577 0.27275,-0.44954 0.54549,-0.89996 0.81826,-1.35115 0.27274,-0.45117 0.5455,-0.90311 0.81825,-1.35568 0.27275,-0.45254 0.54551,-0.90572 0.81827,-1.3594 0.27274,-0.45366 0.54549,-0.90782 0.81825,-1.3623 0.27275,-0.45449 0.54551,-0.90934 0.81826,-1.36436 0.27275,-0.45507 0.54549,-0.91034 0.81826,-1.36563 0.27275,-0.45533 0.5455,-0.91074 0.81825,-1.36606 0.27276,-0.4553 0.54552,-0.91055 0.81826,-1.36562 0.27276,-0.45504 0.5455,-0.90989 0.81827,-1.36438 0.27275,-0.45447 0.54548,-0.90864 0.81826,-1.36228 0.27274,-0.4537 0.5455,-0.90686 0.81826,-1.35942 0.27274,-0.45256 0.54548,-0.90449 0.81824,-1.35568 0.27277,-0.45117 0.5455,-0.90162 0.81827,-1.35113 0.27275,-0.44952 0.5455,-0.89818 0.81826,-1.34578 0.27274,-0.44759 0.5455,-0.89416 0.81825,-1.33957 0.27276,-0.44542 0.54552,-0.88965 0.81826,-1.33258 0.27275,-0.44294 0.5455,-0.88457 0.81826,-1.32479 0.27275,-0.44019 0.54551,-0.87898 0.81826,-1.31618 0.27275,-0.43719 0.5455,-0.87279 0.81826,-1.30674 0.27275,-0.43394 0.5455,-0.86615 0.81826,-1.29654 0.27276,-0.43039 0.5455,-0.85898 0.81824,-1.28557 0.27277,-0.4266 0.54552,-0.85124 0.81828,-1.27378 0.27275,-0.42256 0.54548,-0.84302 0.81826,-1.26126 0.27274,-0.41823 0.5455,-0.83425 0.81825,-1.24795 0.27274,-0.41367 0.5455,-0.82499 0.81825,-1.23385 0.27277,-0.40889 0.54552,-0.81525 0.81828,-1.21904 0.27274,-0.40382 0.54549,-0.80502 0.81823,-1.2035 0.27276,-0.39848 0.54553,-0.79426 0.81827,-1.18721 0.27276,-0.39293 0.54551,-0.78305 0.81826,-1.1702 0.27275,-0.38716 0.54551,-0.77135 0.81826,-1.15247 0.27277,-0.38112 0.54549,-0.75918 0.81825,-1.13407 0.27277,-0.37488 0.54552,-0.74657 0.81826,-1.114962 0.27276,-0.36839 0.54551,-0.73346 0.81826,-1.09517 0.27277,-0.36168 0.54551,-0.71996 0.81826,-1.07473 0.27276,-0.35473 0.54551,-0.70597 0.81826,-1.05361 0.27275,-0.34762 0.5455,-0.69158 0.81827,-1.03187 0.27275,-0.34028 0.5455,-0.67682 0.81824,-1.0095 0.27276,-0.33272 0.54553,-0.6616 0.81826,-0.98656 0.27277,-0.32494 0.54552,-0.64595 0.81826,-0.96294 0.27276,-0.31698 0.54551,-0.62997 0.81827,-0.9388 0.27275,-0.30885 0.54551,-0.61355 0.81826,-0.91405 0.27274,-0.3005 0.54549,-0.59678 0.81824,-0.88879 0.27277,-0.29196 0.54552,-0.57965 0.81827,-0.86292 0.27276,-0.28328 0.5455,-0.56216 0.81826,-0.83656 0.27276,-0.27444 0.54551,-0.54438 0.81825,-0.80976 0.27276,-0.26537 0.54551,-0.52619 0.81827,-0.78239 0.27275,-0.25617 0.5455,-0.5077 0.81825,-0.75453 0.27275,-0.24684 0.54551,-0.48895 0.81828,-0.72625 0.27273,-0.23734 0.54549,-0.46987 0.81824,-0.69758 0.27275,-0.22766 0.54551,-0.45048 0.81825,-0.66836 0.27277,-0.21791 0.54553,-0.43088 0.81826,-0.63885 0.27276,-0.20799 0.54552,-0.41094 0.81827,-0.60889 0.27275,-0.19792 0.5455,-0.39081 0.81826,-0.57858 0.27274,-0.18779 0.5455,-0.37043 0.81825,-0.54791 0.27275,-0.17752 0.5455,-0.34983 0.81826,-0.51694 0.27277,-0.16708 0.54552,-0.32898 0.81826,-0.48559 0.27275,-0.15665 0.54552,-0.30798 0.81826,-0.45403 0.27275,-0.14603 0.54551,-0.28676 0.81827,-0.42211 0.27273,-0.13554 0.5455,-0.2654 0.81826,-0.39 0.27273,-0.12468 0.54548,-0.24383 0.81825,-0.35763 0.27276,-0.1137 0.5455,-0.22212 0.81825,-0.32503 0.27276,-0.10273 0.54553,-0.20032 0.81825,-0.29224 0.27275,-0.0919 0.54553,-0.17832 0.81827,-0.25926 0.27276,-0.0807 0.54551,-0.1563 0.81826,-0.22616 0.27276,-0.0698 0.5455,-0.13431 0.81827,-0.19289 0.27275,-0.0586 0.54549,-0.11181 0.81826,-0.15951 0.27275,-0.0477 0.54548,-0.0895 0.81824,-0.12603 0.27276,-0.0364 0.54551,-0.0672 0.81827,-0.0923 0.27276,-0.025 0.5455,-0.0449 0.81826,-0.0588 0.27274,-0.0141 0.5455,-0.0222 0.81827,-0.0252 0.27273,-0.003 0.5455,0 0.81825,0.008 0.27275,0.008 0.54549,0.0222 0.81823,0.0422 0.27278,0.0195 0.54553,0.045 0.81828,0.0756 0.27275,0.0307 0.5455,0.0672 0.81826,0.10909 0.27276,0.0422 0.54551,0.0895 0.81825,0.1428 0.27275,0.0531 0.54551,0.11181 0.81826,0.17622 0.27276,0.0644 0.54551,0.13431 0.81825,0.20955 0.27277,0.0754 0.54551,0.15633 0.81828,0.24272 0.27276,0.0863 0.54548,0.17838 0.81826,0.2758 0.27273,0.0973 0.5455,0.20032 0.81823,0.30864 0.27277,0.1083 0.54554,0.22214 0.81827,0.34136 0.27276,0.11913 0.5455,0.24386 0.81827,0.37384 0.27275,0.12997 0.5455,0.26537 0.81826,0.40608 0.27274,0.1407 0.54551,0.28679 0.81824,0.43809 0.27276,0.15135 0.54552,0.30799 0.81826,0.46986 0.27277,0.16186 0.54552,0.32899 0.81827,0.50131 0.27276,0.17231 0.5455,0.34982 0.81826,0.53245 0.27275,0.18266 0.5455,0.37043 0.81827,0.5633 0.27273,0.19286 0.5455,0.39083 0.81825,0.59379 0.27275,0.20297 0.54549,0.41095 0.81824,0.62392 0.27278,0.21292 0.54552,0.43088 0.81827,0.65365 0.27275,0.2228 0.54551,0.45051 0.81826,0.68303 0.27273,0.2325 0.54551,0.46986 0.81826,0.71196 0.27275,0.24208 0.54551,0.48892 0.81824,0.74044 0.27276,0.25153 0.54552,0.50772 0.81828,0.76854 0.27275,0.26077 0.54551,0.52621 0.81825,0.79611 0.27276,0.2699 0.54551,0.54433 0.81826,0.82322 0.27275,0.27885 0.5455,0.56217 0.81827,0.8498 0.27275,0.28768 0.5455,0.57968 0.81825,0.87595 0.27275,0.29626 0.5455,0.59678 0.81827,0.90147 0.27275,0.30469 0.5455,0.61358 0.81825,0.92649 0.27275,0.31294 0.5455,0.62999 0.81825,0.95096 0.27274,0.32099 0.54551,0.64594 0.81826,0.9748 0.27276,0.32885 0.54551,0.66158 0.81827,0.99808 0.27275,0.33653 0.54551,0.67683 0.81824,1.02081 0.27275,0.34395 0.54553,0.69161 0.81827,1.04283 0.27276,0.35121 0.5455,0.706 0.81825,1.06423 0.27276,0.35825 0.54551,0.71998 0.81828,1.08504 0.27275,0.36505 0.54548,0.733482 0.81824,1.105152 0.27276,0.37165 0.54551,0.74656 0.81825,1.12458 0.27278,0.37802 0.54552,0.7592 0.81827,1.14335 0.27276,0.38418 0.5455,0.77137 0.81826,1.16143 0.27275,0.39009 0.54551,0.78308 0.81826,1.17879 0.27275,0.39576 0.5455,0.7943 0.81827,1.19545 0.27273,0.40117 0.54549,0.80503 0.81825,1.21139 0.27274,0.40633 0.54551,0.81522 0.81825,1.22652 0.27276,0.4113 0.54552,0.82502 0.81826,1.24103 0.27276,0.41597 0.54551,0.83424 0.81827,1.25466 0.27275,0.42044 0.5455,0.843 0.81826,1.26762 0.27275,0.42459 0.54549,0.85124 0.81823,1.27978 0.27279,0.42852 0.54552,0.85894 0.81828,1.29115 0.27275,0.43218 0.5455,0.86616 0.81825,1.30173 0.27276,0.43561 0.54552,0.87284 0.81825,1.31158 0.27278,0.43873 0.54552,0.87899 0.81827,1.32057 0.27274,0.44158 0.5455,0.88457 0.81827,1.32877 0.27274,0.44422 0.54549,0.88966 0.81825,1.33618 0.27275,0.44655 0.54552,0.89419 0.81826,1.34278 0.27275,0.4486 0.5455,0.89819 0.81825,1.34856 0.27276,0.45038 0.54552,0.90161 0.81827,1.35352 0.27274,0.45191 0.5455,0.9045 0.81825,1.35765 0.27276,0.45314 0.54551,0.90684 0.81826,1.36095 0.27276,0.45412 0.54552,0.90863 0.81826,1.36344 0.27275,0.4548 0.5455,0.90988 0.81826,1.3651 0.27276,0.45524 0.5455,0.91059 0.81825,1.36594"
       style="opacity:1;fill:none;stroke:#808080;stroke-width:4;stroke-linecap:butt;stroke-miterlimit:4;stroke-opacity:1;stroke-dasharray:4, 4;stroke-dashoffset:0" />
  </g>
  <g
     inkscape:groupmode="layer"
     id="layer2"
     inkscape:label="Sine (hi)"
     style="display:inline">
    <path
       style="fill:none;stroke:#ffffff;stroke-width:12;stroke-linecap:butt;stroke-miterlimit:4;stroke-opacity:1;stroke-dasharray:none;stroke-dashoffset:0"
       d="m 24.354902,128.00054 c 0.270967,-0.47559 0.541934,-0.95122 0.812902,-1.42669 0.270968,-0.47549 0.541935,-0.9508 0.812902,-1.42584 0.270968,-0.47504 0.541937,-0.94977 0.812904,-1.42412 0.270969,-0.47432 0.541935,-0.94821 0.812902,-1.42149 0.270969,-0.47332 0.541935,-0.94606 0.812902,-1.41806 0.270969,-0.47203 0.541936,-0.94333 0.812904,-1.41375 0.270969,-0.47044 0.541936,-0.93999 0.812904,-1.40856 0.270967,-0.46855 0.541936,-0.93611 0.812902,-1.40254 0.270966,-0.46638 0.541935,-0.93165 0.812903,-1.39562 0.270966,-0.46398 0.541936,-0.92666 0.812903,-1.3879 0.270967,-0.46125 0.541935,-0.92106 0.812901,-1.37932 0.270968,-0.45828 0.541935,-0.91495 0.812904,-1.36994 0.270967,-0.45495 0.541934,-0.90824 0.812904,-1.35967 0.270966,-0.45143 0.541933,-0.901 0.812902,-1.34859 0.270966,-0.44761 0.541933,-0.89322 0.812904,-1.33674 0.270965,-0.44353 0.541931,-0.88486 0.812902,-1.324 0.270966,-0.43913 0.541934,-0.876 0.812902,-1.3105 0.270966,-0.43452 0.541934,-0.86663 0.812903,-1.29625 0.270967,-0.42959 0.541934,-0.85666 0.812903,-1.28108 0.270966,-0.42448 0.541934,-0.84627 0.812902,-1.26528 0.270967,-0.41906 0.541935,-0.835279 0.812903,-1.248669 0.270968,-0.41332 0.541934,-0.82377 0.812902,-1.23123 0.270968,-0.40743 0.541934,-0.81182 0.812903,-1.21311 0.270968,-0.40123 0.541935,-0.79936 0.812904,-1.19423 0.270966,-0.39482 0.541934,-0.78644 0.812903,-1.1746 0.270966,-0.38821 0.541934,-0.77301 0.812902,-1.15435 0.270967,-0.38128 0.541935,-0.7591 0.812903,-1.13329 0.270967,-0.37418 0.541935,-0.74475 0.812903,-1.1116 0.270965,-0.36686 0.541934,-0.72997 0.812901,-1.08924 0.270968,-0.35929 0.541934,-0.71469 0.812904,-1.06619 0.270968,-0.35148 0.541934,-0.69901 0.812904,-1.04251 0.270967,-0.34348 0.541933,-0.68291 0.812901,-1.01819 0.270967,-0.33528 0.541934,-0.66639 0.812903,-0.99326 0.270967,-0.32686 0.541934,-0.64946 0.812902,-0.96771 0.270967,-0.31826 0.541935,-0.63214 0.812902,-0.94159 0.270968,-0.30945 0.541937,-0.61444 0.812903,-0.9149 0.270968,-0.30045 0.541936,-0.59636 0.812905,-0.88764 0.270966,-0.29128 0.541934,-0.57792 0.8129,-0.85985 0.27097,-0.28193 0.541937,-0.55913 0.812903,-0.83154 0.270968,-0.2724 0.541935,-0.53999 0.812904,-0.80271 0.270967,-0.26272 0.541935,-0.52054 0.812902,-0.77341 0.270968,-0.25288 0.541937,-0.50077 0.812904,-0.74364 0.270966,-0.24287 0.541935,-0.48068 0.812902,-0.71341 0.270967,-0.23272 0.541934,-0.46031 0.812904,-0.68274 0.270966,-0.22244 0.541933,-0.43967 0.812902,-0.65168 0.270966,-0.212 0.541936,-0.41875 0.812901,-0.62021 0.270967,-0.20145 0.541935,-0.39758 0.812903,-0.58835 0.270969,-0.19078 0.541935,-0.37617 0.812904,-0.55615 0.270968,-0.17999 0.541936,-0.35453 0.812902,-0.52362 0.270968,-0.16908 0.541936,-0.33267 0.812901,-0.49075 0.27097,-0.15808 0.541936,-0.31061 0.812903,-0.45759 0.27097,-0.14698 0.541937,-0.28837 0.812904,-0.42416 0.270968,-0.1358 0.541936,-0.26595 0.812902,-0.39047 0.270969,-0.12453 0.541937,-0.24337 0.812903,-0.35654 0.27097,-0.11317 0.541937,-0.22063 0.812906,-0.32239 0.270965,-0.10175 0.541932,-0.19777 0.812899,-0.28805 0.270968,-0.0903 0.541938,-0.17478 0.812902,-0.25353 0.27097,-0.0787 0.541939,-0.1517 0.812905,-0.21886 0.270968,-0.0672 0.541935,-0.12851 0.812902,-0.18406 0.270969,-0.0556 0.541935,-0.10525 0.812902,-0.14914 0.270969,-0.0439 0.541937,-0.0819 0.812905,-0.11413 0.270968,-0.0322 0.541933,-0.0585 0.812901,-0.0791 0.270969,-0.0205 0.541934,-0.0351 0.812903,-0.0439 0.270968,-0.009 0.541935,-0.0117 0.812904,-0.009 0.270967,0.003 0.541934,0.0117 0.812902,0.0263 0.270969,0.0146 0.541934,0.0351 0.812901,0.0615 0.27097,0.0263 0.541936,0.0586 0.812904,0.0966 0.270969,0.038 0.541935,0.0819 0.812903,0.13166 0.270968,0.0497 0.541934,0.10526 0.8129,0.16661 0.270972,0.0614 0.541938,0.12852 0.812906,0.20148 0.270967,0.0729 0.541934,0.1517 0.812904,0.23621 0.270967,0.0845 0.541933,0.1748 0.812901,0.27081 0.270969,0.096 0.541935,0.19779 0.812904,0.30525 0.270967,0.10748 0.541933,0.22064 0.812902,0.33949 0.270967,0.11883 0.541935,0.24338 0.812902,0.37353 0.270968,0.13016 0.541936,0.26596 0.812904,0.40734 0.270967,0.14139 0.541933,0.28838 0.812903,0.44091 0.270968,0.15253 0.541932,0.31063 0.812902,0.47421 0.270968,0.16358 0.541935,0.33269 0.812903,0.50723 0.270968,0.17453 0.541933,0.35453 0.812903,0.53992 0.270967,0.18538 0.541932,0.37618 0.812901,0.5723 0.270968,0.19611 0.541937,0.39759 0.812905,0.60432 0.270967,0.20674 0.541933,0.41876 0.812902,0.63599 0.270968,0.21722 0.541934,0.43968 0.812902,0.66726 0.270968,0.22758 0.541937,0.46033 0.812906,0.69813 0.270963,0.23781 0.541936,0.4807 0.812898,0.72858 0.270972,0.24788 0.541935,0.50078 0.812907,0.75858 0.270962,0.2578 0.541935,0.52055 0.812899,0.78813 0.27097,0.26757 0.541934,0.54 0.812907,0.81718 0.270961,0.27718 0.541935,0.55914 0.812897,0.84576 0.270972,0.28662 0.541937,0.57793 0.812908,0.87381 0.270959,0.29588 0.54193,0.59637 0.812901,0.90134 0.270969,0.30497 0.541935,0.61444 0.812903,0.92831 0.270972,0.31387 0.541932,0.63215 0.812902,0.95473 0.27096,0.32257 0.54194,0.64947 0.8129,0.98056 0.27097,0.33109 0.54195,0.6664 0.8129,1.0058 0.27096,0.3394 0.54194,0.68293 0.81291,1.03043 0.27096,0.34751 0.54194,0.69902 0.81289,1.05444 0.27098,0.35541 0.54195,0.71469 0.8129,1.07777 0.27098,0.36311 0.54195,0.72999 0.81293,1.10051 0.27096,0.37056 0.54192,0.74477 0.81291,1.12254 0.27093,0.37779 0.54193,0.75911 0.8129,1.1439 0.27093,0.38478 0.54192,0.77301 0.81289,1.16456 0.27097,0.39156 0.54193,0.78645 0.8129,1.18454 0.27096,0.39809 0.54195,0.79937 0.8129,1.20375 0.27096,0.40438 0.54196,0.81186 0.8129,1.22227 0.27098,0.41041 0.54195,0.82382 0.81291,1.24004 0.27097,0.416189 0.54193,0.835269 0.81291,1.257049 0.27096,0.42173 0.54191,0.8462 0.8129,1.27326 0.27097,0.42705 0.54192,0.85672 0.8129,1.28878 0.27096,0.43207 0.54193,0.86663 0.81291,1.30345 0.27095,0.43684 0.54192,0.87604 0.81289,1.31739 0.27096,0.44135 0.54195,0.88488 0.81291,1.33046 0.27096,0.44558 0.54193,0.89321 0.8129,1.34277 0.27096,0.44953 0.54194,0.90098 0.81289,1.35423 0.27097,0.45326 0.54196,0.90823 0.8129,1.3649 0.27099,0.45664 0.54195,0.91494 0.81291,1.37471 0.27098,0.45981 0.54194,0.92109 0.81291,1.38375 0.27096,0.46264 0.54193,0.92663 0.81292,1.39187 0.27095,0.46522 0.54191,0.93168 0.81289,1.39917 0.27095,0.46754 0.54192,0.93613 0.81291,1.40565 0.27095,0.46955 0.54191,0.94001 0.8129,1.41127 0.27095,0.47125 0.54193,0.9433 0.81289,1.416 0.27096,0.47268 0.54194,0.94602 0.81291,1.41989 0.27096,0.47384 0.54193,0.94821 0.8129,1.42291 0.27097,0.47471 0.54194,0.9498 0.8129,1.42507 0.27097,0.47532 0.54192,0.95085 0.81291,1.4264 0.27097,0.47559 0.54192,0.95126 0.81289,1.42684 0.27098,0.47555 0.54195,0.95106 0.81291,1.42638 0.27097,0.47529 0.54192,0.95038 0.81291,1.42509 0.27096,0.47469 0.54191,0.94907 0.81291,1.42289 0.27095,0.47389 0.54193,0.94721 0.81289,1.41991 0.27096,0.4727 0.54192,0.94474 0.81289,1.416 0.27099,0.47125 0.54194,0.94174 0.81291,1.41125 0.27097,0.46952 0.54194,0.93815 0.81291,1.40566 0.27096,0.4675 0.54193,0.93395 0.81289,1.39917 0.27098,0.46524 0.54195,0.92924 0.81291,1.39188 0.27097,0.46264 0.54193,0.92392 0.81291,1.38374 0.27096,0.45977 0.54193,0.91808 0.8129,1.37474 0.27096,0.45664 0.54193,0.91162 0.81291,1.36488 0.27095,0.45325 0.54192,0.90469 0.8129,1.35423 0.27097,0.44954 0.54193,0.8972 0.81288,1.34277 0.27099,0.44558 0.54195,0.88912 0.81292,1.33046 0.27097,0.44136 0.54192,0.88053 0.81291,1.31738 0.27096,0.43684 0.54192,0.87137 0.81289,1.30347 0.27096,0.43208 0.54193,0.8617 0.8129,1.28875 0.27099,0.42709 0.54194,0.85153 0.81292,1.27329 0.27096,0.42178 0.54192,0.84083 0.81288,1.25704 0.27097,0.41622 0.54196,0.8296 0.81291,1.24004 0.27097,0.41041 0.54194,0.81789 0.81291,1.22227 0.27096,0.40438 0.54194,0.80567 0.81289,1.20375 0.27099,0.39808 0.54193,0.79296 0.8129,1.18453 0.27099,0.39156 0.54196,0.77979 0.8129,1.16457 0.27098,0.38478 0.54195,0.76609 0.81291,1.1439 0.27099,0.37777 0.54194,0.75199 0.81291,1.12255 0.27097,0.37051 0.54193,0.73738 0.8129,1.10049 0.27097,0.36308 0.54193,0.72235 0.81292,1.07778 0.27095,0.35542 0.54192,0.70693 0.81288,1.05442 0.27097,0.34752 0.54196,0.69103 0.81291,1.03046 0.27097,0.33939 0.54194,0.67469 0.8129,1.00578 0.27097,0.33109 0.54194,0.658 0.81291,0.98057 0.27097,0.3226 0.54194,0.64085 0.8129,0.95472 0.27096,0.31387 0.54193,0.62334 0.81289,0.92834 0.27099,0.30495 0.54194,0.60544 0.81291,0.90131 0.27098,0.29589 0.54193,0.58718 0.81291,0.87379 0.27098,0.28665 0.54193,0.5686 0.81289,0.84579 0.27098,0.27718 0.54194,0.5496 0.81292,0.8172 0.27096,0.26757 0.54193,0.53029 0.81289,0.7881 0.27096,0.25782 0.54194,0.51071 0.81293,0.75857 0.27094,0.2479 0.54192,0.49077 0.81287,0.72861 0.27097,0.2378 0.54195,0.47053 0.8129,0.6981 0.27099,0.22761 0.54197,0.45006 0.8129,0.66728 0.27098,0.21724 0.54195,0.42922 0.81292,0.63598 0.27097,0.20673 0.54193,0.4082 0.81291,0.60433 0.27095,0.19614 0.54192,0.38691 0.81289,0.57229 0.27097,0.18542 0.54193,0.36539 0.81291,0.53994 0.27097,0.17451 0.54194,0.34361 0.8129,0.50719 0.27096,0.16363 0.54195,0.32168 0.81291,0.47423 0.27095,0.15253 0.54193,0.29952 0.8129,0.4409 0.27095,0.14157 0.54194,0.2772 0.81291,0.40735 0.27095,0.13023 0.54191,0.25468 0.81289,0.37354 0.27098,0.11876 0.54194,0.23201 0.8129,0.33949 0.27098,0.10731 0.54195,0.20924 0.81289,0.30525 0.27097,0.096 0.54196,0.18625 0.81292,0.27079 0.27098,0.0843 0.54194,0.16326 0.8129,0.23623 0.27097,0.0729 0.54193,0.14028 0.81292,0.20147 0.27096,0.0612 0.54192,0.11678 0.8129,0.16661 0.27096,0.0498 0.54191,0.0935 0.81289,0.13163 0.27097,0.038 0.54194,0.0702 0.8129,0.0964 0.27098,0.0261 0.54194,0.0469 0.81291,0.0614 0.27096,0.0147 0.54194,0.0232 0.81292,0.0263 0.27094,0.003 0.54192,0 0.81289,-0.008 0.27097,-0.008 0.54192,-0.0232 0.81288,-0.0441 0.27099,-0.0204 0.54195,-0.047 0.81292,-0.079 0.27097,-0.0321 0.54193,-0.0702 0.81291,-0.11394 0.27096,-0.0441 0.54193,-0.0935 0.81289,-0.14916 0.27096,-0.0554 0.54194,-0.11678 0.81291,-0.18406 0.27097,-0.0673 0.54193,-0.14028 0.81289,-0.21887 0.27098,-0.0788 0.54194,-0.16329 0.81292,-0.25352 0.27098,-0.0901 0.54191,-0.18632 0.8129,-0.28807 0.27095,-0.10163 0.54194,-0.20924 0.81288,-0.32238 0.27099,-0.11311 0.54197,-0.23202 0.81291,-0.35655 0.27098,-0.12443 0.54193,-0.25471 0.81292,-0.39047 0.27097,-0.13575 0.54193,-0.27718 0.8129,-0.42415 0.27095,-0.14696 0.54194,-0.29955 0.81289,-0.45758 0.27097,-0.15808 0.54195,-0.3217 0.8129,-0.49076 0.27098,-0.16907 0.54195,-0.34364 0.81292,-0.52362 0.27097,-0.17998 0.54193,-0.36539 0.81289,-0.55614 0.27097,-0.19079 0.54194,-0.38692 0.81292,-0.58837 0.27095,-0.20144 0.54194,-0.40822 0.8129,-0.62021 0.27096,-0.212 0.54191,-0.42923 0.81288,-0.65168 0.271,-0.22239 0.54195,-0.45005 0.81292,-0.68273 0.27096,-0.23272 0.54193,-0.47056 0.8129,-0.71343 0.27095,-0.24284 0.54194,-0.49076 0.81291,-0.74364 0.27095,-0.25285 0.54193,-0.51067 0.81288,-0.77338 0.27097,-0.26272 0.54195,-0.53031 0.81293,-0.80273 0.27096,-0.27238 0.54193,-0.54963 0.81288,-0.83154 0.27098,-0.28191 0.54195,-0.56855 0.81291,-0.85985 0.27097,-0.29126 0.54193,-0.58718 0.81291,-0.88761 0.27097,-0.30048 0.54193,-0.60548 0.8129,-0.91492 0.27097,-0.30944 0.54192,-0.62334 0.81291,-0.94158 0.27097,-0.31825 0.54193,-0.64089 0.8129,-0.96772 0.27097,-0.32686 0.54193,-0.65802 0.81289,-0.99328 0.27095,-0.33527 0.54194,-0.67467 0.81291,-1.01817 0.27097,-0.34348 0.54194,-0.69102 0.81291,-1.04249 0.27096,-0.3515 0.54194,-0.70694 0.81289,-1.06623 0.27096,-0.35925 0.54196,-0.72238 0.81291,-1.08923 0.27097,-0.36684 0.54193,-0.73741 0.81289,-1.11158 0.27098,-0.37419 0.54195,-0.75201 0.81293,-1.13332 0.27096,-0.38129 0.5419,-0.76611 0.81288,-1.15433 0.27098,-0.38818 0.54194,-0.77977 0.8129,-1.17461 0.271,-0.39484 0.54194,-0.79298 0.81291,-1.19422 0.27097,-0.40127 0.54193,-0.8057 0.81291,-1.21311 0.27096,-0.40745 0.54193,-0.81792 0.8129,-1.23124 0.27096,-0.41337 0.54193,-0.82964 0.81292,-1.24864 0.27094,-0.41902 0.54191,-0.84086 0.81288,-1.26529 0.27096,-0.42441 0.54195,-0.8515 0.8129,-1.2811 0.27098,-0.4296 0.54196,-0.86173 0.8129,-1.29625 0.27098,-0.43447 0.54194,-0.87136 0.81292,-1.31048 0.27097,-0.43915 0.54193,-0.88051 0.8129,-1.32402 0.27097,-0.44349 0.54192,-0.88912 0.81288,-1.33673 0.271,-0.44759 0.54195,-0.89716 0.81292,-1.3486 0.27096,-0.45141 0.54193,-0.9047 0.8129,-1.35965 0.27097,-0.45499 0.54195,-0.91168 0.81289,-1.36993 0.27099,-0.45826 0.54195,-0.91811 0.81291,-1.37934 0.27096,-0.46123 0.54194,-0.92392 0.81292,-1.38789 0.27095,-0.46399 0.54192,-0.92925 0.81289,-1.39563 0.27097,-0.46642 0.54195,-0.93398 0.81291,-1.40253 0.27096,-0.46856 0.54192,-0.93815 0.81289,-1.40856 0.27098,-0.47042 0.54195,-0.94173 0.81292,-1.41375 0.27095,-0.47201 0.54192,-0.94475 0.81289,-1.41806 0.27097,-0.4733 0.54194,-0.94719 0.81291,-1.4215 0.27097,-0.47433 0.54194,-0.94906 0.8129,-1.42411 0.27096,-0.47503 0.54193,-0.95037 0.81291,-1.42584 0.27097,-0.47549 0.54192,-0.95111 0.81288,-1.42671"
       title="sin(x)"
       id="path4821"
       inkscape:connector-curvature="0" />
  </g>
</svg>
